<?xml version="1.0" encoding="UTF-8"?>
<svg xmlns="http://www.w3.org/2000/svg" id="Layer_2" data-name="Layer 2" viewBox="0 0 235.02 103.93">
  <defs>
    <style>
      .cls-1 {
        fill: #fff;
        stroke-width: 0px;
      }
    </style>
  </defs>
  <g id="Layer_2-2" data-name="Layer 2">
    <g>
      <g>
        <path class="cls-1" d="M96.49,38.5v-.73h4.69c1.58-2.52,3.21-5.06,4.87-7.62,1.66-2.56,3.41-4.86,5.24-6.91,1.83-2.05,3.74-3.72,5.73-5,1.99-1.28,4.08-1.92,6.27-1.92,1.3,0,2.35.27,3.17.82.81.55,1.22,1.39,1.22,2.53,0,.97-.3,1.78-.91,2.41-.61.63-1.38.99-2.31,1.07.16-.57.29-1.11.4-1.61.1-.51.15-1.11.15-1.8,0-.81-.19-1.46-.58-1.95-.39-.49-1.05-.73-1.98-.73-1.5,0-3.04.68-4.6,2.04-1.56,1.36-3.11,3.08-4.63,5.15-1.52,2.07-3.01,4.32-4.45,6.73-1.44,2.42-2.81,4.68-4.11,6.79h13.77v.73h-14.13c-3.9,6.66-7.39,12.37-10.48,17.12-3.09,4.75-6.05,8.65-8.9,11.7-2.84,3.05-5.69,5.28-8.53,6.7-2.84,1.42-5.99,2.13-9.44,2.13-1.22,0-2.39-.15-3.5-.46-1.12-.3-2.1-.76-2.95-1.37-.85-.61-1.54-1.37-2.07-2.28-.53-.91-.79-1.98-.79-3.2,0-1.58.5-2.93,1.49-4.05,1-1.12,2.67-1.68,5.03-1.68h.55v.49c-1.22.08-2.25.55-3.11,1.4s-1.28,2.03-1.28,3.53c0,2.11.59,3.79,1.77,5.03,1.18,1.24,2.9,1.86,5.18,1.86s4.29-.5,6.28-1.49c1.99-1,3.91-2.37,5.76-4.11,1.85-1.75,3.66-3.8,5.42-6.15,1.77-2.36,3.53-4.9,5.3-7.65,1.77-2.74,3.54-5.6,5.33-8.59,1.79-2.99,3.61-5.96,5.48-8.93h-4.33Z"></path>
        <path class="cls-1" d="M129.2,37.77h3.96c-1.5,2.11-2.95,4.16-4.33,6.15-1.38,1.99-2.61,3.83-3.69,5.51-1.08,1.69-1.94,3.17-2.59,4.45-.65,1.28-.97,2.28-.97,3.02,0,1.06.55,1.58,1.65,1.58.85,0,1.94-.42,3.26-1.25,1.32-.83,2.75-1.98,4.3-3.44,1.54-1.46,3.13-3.17,4.75-5.12,1.62-1.95,3.17-4.02,4.63-6.21l.37.12c-1.1,1.67-2.39,3.46-3.87,5.39-1.48,1.93-3.04,3.73-4.66,5.39-1.62,1.67-3.25,3.06-4.87,4.17-1.62,1.12-3.15,1.68-4.57,1.68-1.18,0-2.04-.29-2.59-.88s-.82-1.29-.82-2.1c0-.57.09-1.13.27-1.68.18-.55.38-1.11.58-1.68l-.12-.06c-.53.57-1.19,1.23-1.98,1.98-.79.75-1.64,1.45-2.56,2.1-.91.65-1.86,1.2-2.83,1.65-.97.45-1.91.67-2.8.67-1.5,0-2.56-.47-3.17-1.4-.61-.93-.91-1.99-.91-3.17,0-1.66.53-3.5,1.58-5.51,1.06-2.01,2.4-3.9,4.02-5.67,1.62-1.77,3.39-3.24,5.3-4.42,1.91-1.18,3.72-1.77,5.42-1.77.81,0,1.52.11,2.13.34.61.22,1.12.53,1.52.91.41.39.72.82.94,1.31.22.49.4,1,.52,1.52h.12l2.01-3.59ZM109.28,54.83c0,.93.19,1.66.58,2.16.39.51.92.76,1.61.76s1.5-.25,2.44-.76c.93-.51,1.91-1.19,2.92-2.04,1.01-.85,2.02-1.84,3.02-2.95.99-1.12,1.88-2.3,2.65-3.56.77-1.26,1.4-2.54,1.89-3.84.49-1.3.73-2.54.73-3.72,0-.93-.26-1.65-.79-2.13-.53-.49-1.18-.73-1.95-.73-1.22,0-2.58.53-4.08,1.58-1.5,1.06-2.92,2.41-4.26,4.05s-2.47,3.46-3.38,5.45c-.91,1.99-1.37,3.9-1.37,5.73Z"></path>
        <path class="cls-1" d="M160.4,43.44c-.93,1.5-2.16,3.12-3.69,4.84-1.52,1.73-3.18,3.34-4.97,4.84-2.19,1.83-4.39,3.3-6.58,4.42-2.19,1.12-4.35,1.68-6.46,1.68-1.5,0-2.76-.4-3.78-1.19-1.02-.79-1.52-1.96-1.52-3.5,0-1.95.56-3.94,1.68-5.97,1.12-2.03,2.52-3.89,4.2-5.57,1.68-1.69,3.53-3.06,5.54-4.11,2.01-1.06,3.91-1.58,5.7-1.58,1.18,0,2.2.21,3.08.64.87.43,1.31,1.17,1.31,2.22,0,.49-.13.89-.4,1.22-.26.33-.59.59-.98.79-.39.2-.81.36-1.28.46-.47.1-.88.17-1.25.21.16-.41.3-.82.43-1.25.12-.43.18-.86.18-1.31,0-1.5-.71-2.25-2.13-2.25-1.06,0-2.31.52-3.75,1.55-1.44,1.04-2.8,2.35-4.08,3.93s-2.37,3.33-3.26,5.24c-.89,1.91-1.34,3.76-1.34,5.54,0,1.1.25,2.03.76,2.8.51.77,1.29,1.16,2.35,1.16,1.42,0,3.06-.47,4.9-1.4,1.85-.93,3.65-2.09,5.39-3.47,1.83-1.42,3.58-3.06,5.27-4.9,1.69-1.85,3.1-3.65,4.23-5.39l.43.37Z"></path>
        <path class="cls-1" d="M167.1,37.77c-2.23,3.21-4.12,5.91-5.67,8.1-1.54,2.19-2.79,4.02-3.75,5.48-.96,1.46-1.65,2.62-2.07,3.47-.43.85-.64,1.54-.64,2.07,0,1.06.43,1.58,1.28,1.58s1.76-.29,2.83-.88c1.08-.59,2.2-1.35,3.38-2.28,1.18-.93,2.36-1.99,3.53-3.17s2.28-2.35,3.32-3.5c1.04-1.16,1.95-2.27,2.74-3.35.79-1.08,1.37-1.96,1.74-2.65l.49.3c-.49.81-1.15,1.79-1.98,2.92-.83,1.14-1.78,2.31-2.83,3.5-1.06,1.2-2.17,2.39-3.35,3.56-1.18,1.18-2.38,2.23-3.59,3.17-1.22.93-2.41,1.69-3.56,2.25s-2.22.85-3.2.85c-1.1,0-1.91-.3-2.44-.91-.53-.61-.79-1.28-.79-2.01,0-.85.19-1.76.58-2.71.39-.95,1.01-2.12,1.86-3.5.85-1.38,1.96-3.06,3.32-5.03,1.36-1.97,2.99-4.4,4.9-7.28h3.9ZM170.63,26.44c.57,0,1.04.19,1.4.58.37.39.55.86.55,1.43s-.18,1.05-.55,1.43c-.37.39-.83.58-1.4.58s-1.04-.19-1.4-.58c-.37-.39-.55-.86-.55-1.43s.18-1.05.55-1.43c.37-.39.83-.58,1.4-.58Z"></path>
        <path class="cls-1" d="M190.06,37.77h3.96c-1.5,2.11-2.95,4.16-4.33,6.15-1.38,1.99-2.61,3.83-3.69,5.51-1.08,1.69-1.94,3.17-2.59,4.45-.65,1.28-.97,2.28-.97,3.02,0,1.06.55,1.58,1.65,1.58.85,0,1.94-.42,3.26-1.25,1.32-.83,2.75-1.98,4.3-3.44,1.54-1.46,3.13-3.17,4.75-5.12,1.62-1.95,3.17-4.02,4.63-6.21l.37.12c-1.1,1.67-2.39,3.46-3.87,5.39-1.48,1.93-3.04,3.73-4.66,5.39-1.62,1.67-3.25,3.06-4.87,4.17-1.62,1.12-3.15,1.68-4.57,1.68-1.18,0-2.04-.29-2.59-.88s-.82-1.29-.82-2.1c0-.57.09-1.13.27-1.68.18-.55.38-1.11.58-1.68l-.12-.06c-.53.57-1.19,1.23-1.98,1.98-.79.75-1.64,1.45-2.56,2.1-.91.65-1.86,1.2-2.83,1.65-.97.45-1.91.67-2.8.67-1.5,0-2.56-.47-3.17-1.4-.61-.93-.91-1.99-.91-3.17,0-1.66.53-3.5,1.58-5.51,1.06-2.01,2.4-3.9,4.02-5.67,1.62-1.77,3.39-3.24,5.3-4.42,1.91-1.18,3.72-1.77,5.42-1.77.81,0,1.52.11,2.13.34.61.22,1.12.53,1.52.91.41.39.72.82.94,1.31.22.49.4,1,.52,1.52h.12l2.01-3.59ZM170.14,54.83c0,.93.19,1.66.58,2.16.39.51.92.76,1.61.76s1.5-.25,2.44-.76c.93-.51,1.91-1.19,2.92-2.04,1.01-.85,2.02-1.84,3.02-2.95.99-1.12,1.88-2.3,2.65-3.56.77-1.26,1.4-2.54,1.89-3.84.49-1.3.73-2.54.73-3.72,0-.93-.26-1.65-.79-2.13-.53-.49-1.18-.73-1.95-.73-1.22,0-2.58.53-4.08,1.58-1.5,1.06-2.92,2.41-4.26,4.05s-2.47,3.46-3.38,5.45c-.91,1.99-1.37,3.9-1.37,5.73Z"></path>
        <path class="cls-1" d="M205.91,53.68c-1.99,1.87-3.71,3.23-5.15,4.08-1.44.85-2.75,1.28-3.93,1.28-1.26,0-2.16-.28-2.71-.85s-.82-1.32-.82-2.25c0-.85.15-1.74.46-2.65.3-.91.82-2.01,1.55-3.29.73-1.28,1.7-2.83,2.89-4.66,1.2-1.83,2.68-4.07,4.45-6.73,1.77-2.66,3.85-5.83,6.24-9.5,2.4-3.68,5.16-7.99,8.29-12.95h4.26c-3.62,5.48-6.76,10.23-9.44,14.23-2.68,4-4.98,7.42-6.88,10.27-1.91,2.84-3.47,5.19-4.69,7.04-1.22,1.85-2.17,3.36-2.86,4.54-.69,1.18-1.17,2.11-1.43,2.8-.26.69-.4,1.28-.4,1.77,0,1.02.45,1.52,1.34,1.52,1.02,0,2.2-.42,3.56-1.25,1.36-.83,2.82-1.97,4.39-3.41l.88.03Z"></path>
        <path class="cls-1" d="M235.02,43.01c-1.22,1.95-2.63,3.89-4.23,5.82-1.6,1.93-3.36,3.67-5.27,5.21-1.91,1.54-3.99,2.79-6.24,3.75-2.25.95-4.66,1.43-7.22,1.43-.97,0-1.89-.12-2.74-.37-.85-.24-1.59-.61-2.22-1.1-.63-.49-1.14-1.11-1.52-1.86-.39-.75-.58-1.63-.58-2.65s.35-2.01,1.04-2.86c.69-.85,1.62-1.28,2.8-1.28.61,0,1.11.15,1.49.46.39.3.58.76.58,1.37,0,.57-.14,1.06-.43,1.46-.28.41-.71.61-1.28.61-.45,0-.8-.12-1.07-.37-.26-.24-.44-.55-.52-.91-.45.24-.75.6-.91,1.07-.16.47-.24.94-.24,1.43,0,1.42.54,2.49,1.61,3.2,1.08.71,2.28,1.07,3.62,1.07.85,0,1.59-.17,2.22-.52.63-.34,1.16-.79,1.58-1.34.43-.55.74-1.19.94-1.92.2-.73.3-1.46.3-2.19,0-.77-.13-1.57-.4-2.41-.26-.83-.56-1.65-.88-2.47-.33-.81-.63-1.61-.91-2.41-.28-.79-.43-1.53-.43-2.22,0-.89.18-1.7.55-2.41.37-.71.86-1.31,1.49-1.8.63-.49,1.35-.86,2.16-1.13.81-.26,1.66-.4,2.56-.4,1.62,0,2.94.36,3.96,1.07,1.01.71,1.52,1.66,1.52,2.83,0,1.06-.4,1.83-1.19,2.31-.79.49-1.68.73-2.65.73.24-.45.46-.98.64-1.61.18-.63.27-1.21.27-1.74,0-.81-.25-1.49-.76-2.04-.51-.55-1.23-.82-2.16-.82-1.18,0-2.05.36-2.62,1.07-.57.71-.85,1.57-.85,2.59,0,.89.15,1.75.46,2.56.3.81.66,1.62,1.07,2.44.37.81.7,1.65,1.01,2.5.3.85.46,1.81.46,2.86,0,.77-.17,1.51-.52,2.22-.35.71-.8,1.36-1.37,1.95-.57.59-1.21,1.09-1.92,1.49-.71.41-1.43.67-2.16.79l.12.12c2.19-.24,4.28-.88,6.28-1.92,1.99-1.04,3.85-2.29,5.57-3.78,1.73-1.48,3.32-3.11,4.78-4.87,1.46-1.77,2.74-3.5,3.84-5.21l.37.18Z"></path>
      </g>
      <g>
        <path class="cls-1" d="M18.59,37.36h4.43v22.15h-3.65v-16.1l.02.03-5.86,16.07h-3.12l-5.92-16.1h-.07v16.1H.84v-22.15h4.59l6.55,17.71,6.62-17.71Z"></path>
        <path class="cls-1" d="M41.69,56.3h10.11v3.21h-13.76v-22.15h13.56v3.11h-9.91v6.26h9.47v3.04h-9.47v6.53Z"></path>
        <path class="cls-1" d="M72.53,37.03c4.04,0,7.07.95,9.1,2.84,2.03,1.89,3.04,4.69,3.04,8.39,0,3.4-1.05,6.14-3.15,8.2s-5.1,3.08-9,3.06h-6.39v-22.25c1.98-.16,4.11-.24,6.39-.24ZM72.77,56.03c2.59.02,4.62-.69,6.09-2.15,1.47-1.45,2.2-3.33,2.2-5.63,0-2.52-.71-4.45-2.13-5.77s-3.47-1.98-6.16-1.98c-1.42,0-2.41.02-2.98.07v15.46h2.98Z"></path>
      </g>
      <g>
        <path class="cls-1" d="M73.19,93.6c1.82,0,3.19.43,4.1,1.28.92.85,1.37,2.11,1.37,3.78,0,1.54-.47,2.77-1.42,3.7-.95.93-2.3,1.39-4.06,1.38h-2.88v-10.03c.89-.07,1.85-.11,2.88-.11ZM73.3,102.16c1.17.01,2.08-.31,2.74-.97.66-.66.99-1.5.99-2.54,0-1.14-.32-2-.96-2.6s-1.57-.89-2.77-.89c-.64,0-1.09.01-1.34.03v6.97h1.34Z"></path>
        <path class="cls-1" d="M90.09,103.74l-1.94-3.57h-2.53v3.57h-1.66v-10.05c1.1-.04,2.24-.06,3.43-.06,2.66,0,4,1,4,3,0,.56-.18,1.11-.53,1.64-.35.53-.79.97-1.32,1.3l2.53,4.16h-1.98ZM85.62,95.1v3.63h2.55c.44-.18.8-.45,1.1-.79.29-.35.44-.73.44-1.14,0-.57-.22-1-.66-1.29-.44-.29-1.03-.43-1.77-.43-.85,0-1.41.01-1.66.03Z"></path>
        <path class="cls-1" d="M104.15,103.87c-1.1,0-2.19-.25-3.28-.76l.44-1.28c1.02.41,1.98.61,2.88.61.57,0,1.02-.11,1.36-.34.34-.22.51-.53.51-.93s-.14-.68-.41-.87c-.27-.19-.78-.43-1.51-.72-.09-.03-.16-.06-.2-.08-.92-.35-1.52-.62-1.81-.82-.78-.52-1.17-1.24-1.17-2.17,0-.84.34-1.54,1.01-2.1.67-.55,1.64-.83,2.91-.83.95,0,1.84.2,2.68.61l-.41,1.25c-.78-.28-1.6-.43-2.46-.43-.64,0-1.16.12-1.56.37-.4.24-.59.58-.59.99s.16.71.48.92c.32.22.85.47,1.59.74.35.14.59.24.73.3.14.06.35.14.64.26.29.12.49.22.62.3.12.09.28.21.47.36.19.15.33.3.4.45s.15.33.21.54c.07.21.1.44.1.68,0,.96-.34,1.68-1.02,2.18-.68.5-1.56.75-2.62.75Z"></path>
        <path class="cls-1" d="M119.26,93.75v1.43h-2.97v8.55h-1.77v-8.55h-2.97v-1.43h7.72Z"></path>
        <path class="cls-1" d="M127.52,103.93c-1.44,0-2.58-.45-3.42-1.36-.84-.9-1.26-2.17-1.26-3.8s.41-2.87,1.24-3.78c.82-.91,1.97-1.37,3.45-1.37s2.6.44,3.43,1.33c.83.89,1.25,2.16,1.25,3.82,0,1.56-.41,2.8-1.22,3.74-.81.94-1.97,1.41-3.46,1.41ZM127.52,102.41c.87,0,1.57-.33,2.1-1s.79-1.54.79-2.63-.25-1.93-.75-2.62c-.5-.69-1.21-1.03-2.13-1.03s-1.57.33-2.09.99c-.52.66-.78,1.55-.78,2.65s.25,1.94.76,2.62c.51.68,1.21,1.01,2.1,1.01Z"></path>
        <path class="cls-1" d="M139.55,102.23h4.32v1.51h-6.08v-9.99h1.77v8.48Z"></path>
        <path class="cls-1" d="M155.01,93.75v1.43h-2.97v8.55h-1.77v-8.55h-2.97v-1.43h7.72Z"></path>
        <path class="cls-1" d="M161.51,102.29h4.56v1.45h-6.21v-9.99h6.11v1.4h-4.47v2.82h4.27v1.37h-4.27v2.94Z"></path>
      </g>
      <rect class="cls-1" width="233.83" height=".54"></rect>
      <rect class="cls-1" x=".91" y="97.43" width="52.25" height=".54"></rect>
      <rect class="cls-1" x="182.49" y="97.43" width="52.25" height=".54"></rect>
    </g>
  </g>
</svg>
