<?xml version="1.0" encoding="UTF-8"?>
<svg xmlns="http://www.w3.org/2000/svg" id="Layer_2" data-name="Layer 2" viewBox="0 0 146.17 66.98">
  <defs>
    <style>
      .cls-1 {
        fill: #3c1760;
        stroke-width: 0px;
      }
    </style>
  </defs>
  <g id="Layer_1-2" data-name="Layer 1">
    <path class="cls-1" d="M22.65,21.21h6.35c5.09,0,8.27,2.47,8.27,6.44,0,1.4-.51,2.67-1.44,3.65-.44.46-.61.62-1.33,1.17,1.33.55,1.81.88,2.6,1.72,1.06,1.17,1.61,2.6,1.61,4.2,0,1.79-.72,3.55-1.88,4.72-.68.68-1.57,1.2-2.6,1.56-1.67.55-2.08.62-5.23.62h-6.35v-24.08ZM25.18,31.58h3.18c1.91,0,2.66-.1,3.79-.46,1.54-.49,2.6-1.99,2.6-3.61,0-1.07-.48-2.11-1.26-2.83-1.03-.91-2.43-1.3-4.92-1.3h-3.38v8.2ZM25.18,43.1h3.55c2.32,0,3.35-.13,4.61-.55,1.64-.55,2.84-2.28,2.84-4.13,0-1.24-.55-2.44-1.54-3.25-.51-.42-1.09-.78-1.68-.94-1.26-.39-2.08-.46-4.68-.46h-3.11v9.34Z"></path>
    <path class="cls-1" d="M50.86,21.21h2.83l10.86,24.08h-2.77l-3.65-8.1h-11.75l-3.69,8.1h-2.63l10.8-24.08ZM47.35,35h9.8l-4.85-11.06-4.95,11.06Z"></path>
    <path class="cls-1" d="M67.4,21.21h6.35c5.09,0,8.27,2.47,8.27,6.44,0,1.4-.51,2.67-1.44,3.65-.44.46-.61.62-1.33,1.17,1.33.55,1.81.88,2.6,1.72,1.06,1.17,1.61,2.6,1.61,4.2,0,1.79-.72,3.55-1.88,4.72-.68.68-1.57,1.2-2.6,1.56-1.67.55-2.09.62-5.23.62h-6.35v-24.08ZM69.93,31.58h3.18c1.91,0,2.66-.1,3.79-.46,1.54-.49,2.6-1.99,2.6-3.61,0-1.07-.48-2.11-1.26-2.83-1.02-.91-2.43-1.3-4.92-1.3h-3.38v8.2ZM69.93,43.1h3.55c2.32,0,3.35-.13,4.61-.55,1.64-.55,2.83-2.28,2.83-4.13,0-1.24-.55-2.44-1.54-3.25-.51-.42-1.09-.78-1.68-.94-1.26-.39-2.08-.46-4.68-.46h-3.11v9.34Z"></path>
    <polygon class="cls-1" points="90.42 23.39 84.61 23.39 84.61 21.21 98.72 21.21 98.72 23.39 92.95 23.39 92.95 45.28 90.42 45.28 90.42 23.39"></polygon>
    <path class="cls-1" d="M107.34,21.21h2.84l10.86,24.08h-2.77l-3.66-8.1h-11.75l-3.69,8.1h-2.63l10.79-24.08ZM103.82,35h9.81l-4.85-11.06-4.95,11.06Z"></path>
    <path class="cls-1" d="M146.13,38.97c-1.43,2.34-2.22,3.16-4.17,4.46-2.22,1.46-4.89,2.28-7.55,2.28-7.28,0-13.15-5.56-13.15-12.46s5.81-12.43,13.15-12.43c3.45,0,6.66,1.2,9.16,3.45,1.37,1.24,1.78,1.69,2.46,3.12h-2.83c-1.37-1.82-2.12-2.44-3.89-3.29-1.5-.68-3.28-1.11-4.92-1.11-5.67,0-10.59,4.75-10.59,10.31s4.99,10.22,10.73,10.22c1.61,0,3.25-.39,4.75-1.14,1.71-.88,2.46-1.53,4.03-3.42h2.84Z"></path>
    <path class="cls-1" d="M32.23.12c4.34-1.19.07,6.96-3.31,7.53-4.38.74.87-6.86,3.31-7.53"></path>
    <path class="cls-1" d="M43.04.47c6.33-1.46,1.01,8.43-3.75,9.02-6.15.75.18-8.19,3.75-9.02"></path>
    <path class="cls-1" d="M50.54,9.75c8.57-.88,2.55,10.36-3.52,10.93-8.55.8-2.46-10.32,3.52-10.93"></path>
    <path class="cls-1" d="M35.46,47.11c5.89,2.3,4.48,12.94-2.06,13.47-9.14.74-6.6-16.85,2.06-13.47"></path>
    <path class="cls-1" d="M20.47,54.75c4.97,3.23-.03,15.65-4.69,11.31-3.32-3.1-.53-14.71,4.69-11.31"></path>
    <path class="cls-1" d="M9.23,52.42c3.44,2.63-1.26,12.43-4.12,9.36-2.15-2.31.61-12.03,4.12-9.36"></path>
    <path class="cls-1" d="M4.19,44.16c2.78,1.8-1.39,9.8-3.56,7.78-1.95-1.83.99-9.46,3.56-7.78"></path>
    <path class="cls-1" d="M4.06,33.82c2.45.95-1,8.08-3.16,6.77-2.01-1.23.87-7.66,3.16-6.77"></path>
    <path class="cls-1" d="M7.44,23.3c2.17.25-.53,6.93-2.94,6.26-2.18-.61.84-6.5,2.94-6.26"></path>
    <path class="cls-1" d="M13.52,13.54c2.35-.23-.34,6.28-2.9,6.21-2.45-.07.82-6,2.9-6.21"></path>
    <path class="cls-1" d="M21.93,5.35c3.02-.7-.19,6.27-3.02,6.61-3.04.37.78-6.1,3.02-6.61"></path>
    <path class="cls-1" d="M25.09,12.38c2.46-.67.04,3.94-1.88,4.27-2.48.42.49-3.89,1.88-4.27"></path>
    <path class="cls-1" d="M31.22,12.58c3.59-.83.57,4.78-2.13,5.11-3.49.43.1-4.64,2.13-5.11"></path>
    <path class="cls-1" d="M37.63,15.25c4.86-.5,1.45,5.88-2,6.2-4.85.46-1.39-5.85,2-6.2"></path>
    <path class="cls-1" d="M18.42,43.36c2.82,1.83-.02,8.87-2.66,6.42-1.88-1.76-.3-8.34,2.66-6.42"></path>
    <path class="cls-1" d="M12.05,42.04c1.95,1.49-.71,7.05-2.33,5.31-1.22-1.31.35-6.82,2.33-5.31"></path>
    <path class="cls-1" d="M9.19,37.36c1.58,1.02-.79,5.56-2.02,4.41-1.11-1.04.57-5.37,2.02-4.41"></path>
    <path class="cls-1" d="M9.11,31.49c1.39.54-.57,4.58-1.79,3.84-1.14-.7.5-4.34,1.79-3.84"></path>
    <path class="cls-1" d="M11.03,25.53c1.23.14-.3,3.93-1.67,3.55-1.23-.34.48-3.68,1.67-3.55"></path>
    <path class="cls-1" d="M14.48,19.99c1.33-.13-.19,3.56-1.65,3.53-1.39-.04.47-3.4,1.65-3.53"></path>
    <path class="cls-1" d="M19.25,15.34c1.71-.39-.11,3.56-1.71,3.75-1.72.21.44-3.46,1.71-3.75"></path>
    <path class="cls-1" d="M92.27,52.64c-.25.17-.61.21-.91.21h-.94v-3.51h.76c.36,0,.73.01,1.02.27.18.16.3.42.3.66,0,.3-.13.52-.4.67.41.15.6.44.6.88,0,.34-.16.64-.44.84M91.35,49.95h-.27v.76h.25c.25,0,.53-.07.53-.38s-.25-.38-.5-.38M91.42,51.31h-.34v.93h.33c.31,0,.65-.08.65-.46,0-.36-.34-.47-.64-.47"></path>
    <path class="cls-1" d="M94.73,52.85l-.93-1.34h-.01v1.34h-.65v-3.51h1.08c.31,0,.61.04.86.24.26.21.41.52.41.85,0,.3-.12.63-.34.84-.18.17-.35.23-.59.29l.96,1.3h-.79ZM94.21,49.94h-.42v1.07h.42c.35,0,.63-.17.63-.54s-.3-.53-.63-.53"></path>
    <rect class="cls-1" x="95.92" y="49.34" width=".65" height="3.51"></rect>
    <polygon class="cls-1" points="98.23 49.94 98.23 52.85 97.58 52.85 97.58 49.94 96.93 49.94 96.93 49.34 98.89 49.34 98.89 49.94 98.23 49.94"></polygon>
    <rect class="cls-1" x="99.23" y="49.34" width=".65" height="3.51"></rect>
    <path class="cls-1" d="M101.41,52.92c-.62,0-1.12-.46-1.14-1.08h.68c.02.27.18.47.46.47.25,0,.49-.17.49-.44,0-.4-.36-.47-.67-.59-.11-.04-.21-.08-.32-.13-.36-.18-.52-.47-.52-.88,0-.58.45-1,1.03-1s1.01.43,1.04,1h-.66c-.02-.24-.15-.39-.39-.39-.2,0-.36.15-.36.36,0,.34.32.4.58.49.53.18.92.47.92,1.08,0,.67-.49,1.12-1.14,1.12"></path>
    <polygon class="cls-1" points="104.92 52.85 104.92 51.37 103.66 51.37 103.66 52.85 103.01 52.85 103.01 49.34 103.66 49.34 103.66 50.77 104.92 50.77 104.92 49.34 105.57 49.34 105.57 52.85 104.92 52.85"></polygon>
    <path class="cls-1" d="M109.97,52.85l-.38-.91h-1.26l-.38.91h-.72l1.46-3.52h.51l1.47,3.52h-.72ZM108.96,50.25h-.01l-.4,1.08h.81l-.4-1.08Z"></path>
    <path class="cls-1" d="M111.92,52.92c-.62,0-1.12-.46-1.14-1.08h.68c.02.27.18.47.46.47.25,0,.49-.17.49-.44,0-.4-.36-.47-.67-.59-.11-.04-.21-.08-.32-.13-.36-.18-.52-.47-.52-.88,0-.58.46-1,1.03-1s1.01.43,1.04,1h-.66c-.02-.24-.15-.39-.4-.39-.2,0-.36.15-.36.36,0,.34.32.4.58.49.53.18.92.47.92,1.08,0,.67-.49,1.12-1.14,1.12"></path>
    <path class="cls-1" d="M114.38,52.92c-.62,0-1.12-.46-1.14-1.08h.68c.02.27.18.47.46.47.25,0,.49-.17.49-.44,0-.4-.36-.47-.67-.59-.11-.04-.21-.08-.32-.13-.36-.18-.52-.47-.52-.88,0-.58.45-1,1.03-1s1.01.43,1.04,1h-.66c-.02-.24-.15-.39-.4-.39-.2,0-.36.15-.36.36,0,.34.32.4.58.49.53.18.92.47.92,1.08,0,.67-.49,1.12-1.14,1.12"></path>
    <path class="cls-1" d="M117.63,52.92c-1.01,0-1.84-.81-1.84-1.82s.82-1.84,1.84-1.84,1.84.82,1.84,1.84-.83,1.82-1.84,1.82M117.63,49.87c-.67,0-1.19.57-1.19,1.22s.52,1.22,1.19,1.22,1.19-.56,1.19-1.22-.51-1.22-1.19-1.22"></path>
    <path class="cls-1" d="M122.51,50.34c-.25-.29-.55-.47-.94-.47-.65,0-1.14.59-1.14,1.22s.52,1.22,1.17,1.22c.38,0,.64-.17.88-.44h.76c-.27.64-.94,1.05-1.62,1.05-1.01,0-1.83-.84-1.83-1.84s.83-1.81,1.82-1.81c.72,0,1.37.41,1.66,1.07h-.74Z"></path>
    <rect class="cls-1" x="123.65" y="49.34" width=".65" height="3.51"></rect>
    <path class="cls-1" d="M127.39,52.85l-.38-.91h-1.26l-.38.91h-.72l1.46-3.52h.51l1.47,3.52h-.72ZM126.38,50.25h0l-.4,1.08h.81l-.4-1.08Z"></path>
    <polygon class="cls-1" points="129.12 49.94 129.12 52.85 128.47 52.85 128.47 49.94 127.82 49.94 127.82 49.34 129.77 49.34 129.77 49.94 129.12 49.94"></polygon>
    <rect class="cls-1" x="130.12" y="49.34" width=".65" height="3.51"></rect>
    <path class="cls-1" d="M133.09,52.92c-1.01,0-1.84-.81-1.84-1.82s.82-1.84,1.84-1.84,1.84.82,1.84,1.84-.83,1.82-1.84,1.82M133.09,49.87c-.67,0-1.19.57-1.19,1.22s.52,1.22,1.19,1.22,1.19-.56,1.19-1.22-.51-1.22-1.19-1.22"></path>
    <polygon class="cls-1" points="137.54 52.85 136.07 50.3 136.06 50.3 136.06 52.85 135.41 52.85 135.41 49.34 136.15 49.34 137.6 51.89 137.61 51.89 137.61 49.34 138.26 49.34 138.26 52.85 137.54 52.85"></polygon>
    <path class="cls-1" d="M141.9,52.92c-1.01,0-1.84-.81-1.84-1.82s.82-1.84,1.84-1.84,1.84.82,1.84,1.84-.83,1.82-1.84,1.82M141.9,49.87c-.67,0-1.19.57-1.19,1.22s.52,1.22,1.19,1.22,1.19-.56,1.19-1.22-.51-1.22-1.19-1.22"></path>
    <polygon class="cls-1" points="144.82 49.94 144.82 50.8 145.91 50.8 145.91 51.41 144.82 51.41 144.82 52.85 144.17 52.85 144.17 49.34 145.96 49.34 145.96 49.94 144.82 49.94"></polygon>
    <path class="cls-1" d="M69.18,58.34c-.25.17-.61.21-.91.21h-.94v-3.51h.76c.36,0,.73.01,1.02.27.18.16.3.42.3.66,0,.3-.13.52-.4.67.41.15.6.44.6.88,0,.34-.16.64-.44.84M68.26,55.64h-.27v.76h.25c.25,0,.53-.07.53-.38s-.25-.38-.5-.38M68.33,57.01h-.34v.93h.33c.31,0,.65-.08.65-.46,0-.36-.34-.47-.64-.47"></path>
    <polygon class="cls-1" points="70.04 58.55 70.04 55.04 71.93 55.04 71.93 55.64 70.69 55.64 70.69 56.5 71.88 56.5 71.88 57.11 70.69 57.11 70.69 57.94 71.93 57.94 71.93 58.55 70.04 58.55"></polygon>
    <path class="cls-1" d="M74.97,58.55l-.38-.91h-1.26l-.38.91h-.72l1.46-3.52h.51l1.47,3.52h-.72ZM73.96,55.95h0l-.4,1.08h.81l-.4-1.08Z"></path>
    <path class="cls-1" d="M78.29,58.1c-.24.34-.65.52-1.05.52s-.81-.18-1.05-.5c-.18-.23-.22-.56-.22-.85v-2.23h.65v2.23c0,.41.13.75.61.75s.61-.34.61-.75v-2.23h.65v2.23c0,.29-.04.59-.2.83"></path>
    <polygon class="cls-1" points="80.08 55.64 80.08 58.55 79.42 58.55 79.42 55.64 78.77 55.64 78.77 55.04 80.73 55.04 80.73 55.64 80.08 55.64"></polygon>
    <polygon class="cls-1" points="82.53 57.25 82.53 58.55 81.88 58.55 81.88 57.25 80.72 55.04 81.43 55.04 82.2 56.65 82.97 55.04 83.69 55.04 82.53 57.25"></polygon>
    <polygon class="cls-1" points="86.32 55.64 86.32 58.55 85.67 58.55 85.67 55.64 85.01 55.64 85.01 55.04 86.97 55.04 86.97 55.64 86.32 55.64"></polygon>
    <polygon class="cls-1" points="89.22 58.55 89.22 57.07 87.96 57.07 87.96 58.55 87.31 58.55 87.31 55.04 87.96 55.04 87.96 56.47 89.22 56.47 89.22 55.04 89.87 55.04 89.87 58.55 89.22 58.55"></polygon>
    <polygon class="cls-1" points="90.48 58.55 90.48 55.04 92.37 55.04 92.37 55.64 91.13 55.64 91.13 56.5 92.32 56.5 92.32 57.11 91.13 57.11 91.13 57.94 92.37 57.94 92.37 58.55 90.48 58.55"></polygon>
    <path class="cls-1" d="M94.55,58.55l-.93-1.34h-.01v1.34h-.65v-3.51h1.08c.31,0,.61.04.86.24.26.21.41.52.41.85,0,.3-.12.63-.34.84-.18.17-.35.23-.59.29l.96,1.3h-.79ZM94.02,55.64h-.42v1.07h.42c.35,0,.63-.17.63-.54s-.3-.53-.63-.53"></path>
    <path class="cls-1" d="M98.16,58.55l-.38-.91h-1.26l-.38.91h-.72l1.46-3.52h.51l1.47,3.52h-.72ZM97.15,55.95h0l-.4,1.08h.81l-.4-1.08Z"></path>
    <path class="cls-1" d="M101.16,56.93c-.3.27-.6.28-.99.28h-.28v1.34h-.65v-3.51h.93c.38,0,.68.01.99.28.24.21.33.49.33.81s-.09.6-.33.81M100.13,55.64h-.23v.96h.21c.34,0,.74-.05.74-.48s-.38-.48-.71-.48"></path>
    <polygon class="cls-1" points="103.35 57.25 103.35 58.55 102.7 58.55 102.7 57.25 101.54 55.04 102.26 55.04 103.02 56.65 103.79 55.04 104.51 55.04 103.35 57.25"></polygon>
    <path class="cls-1" d="M108.51,58.62l-.49-.53c-.22.3-.5.53-.89.53-.62,0-1.16-.48-1.16-1.11,0-.48.27-.76.66-.99-.17-.2-.29-.38-.29-.66,0-.5.39-.89.89-.89s.91.37.91.87c0,.41-.21.67-.56.87l.32.36.34-.58h.7l-.6,1.06.62.68-.46.41ZM107.03,57.02c-.22.1-.43.24-.43.52s.21.47.49.47c.25,0,.38-.19.49-.39l-.55-.6ZM107.23,55.56c-.16,0-.3.13-.3.29s.14.3.25.41c.17-.08.35-.18.35-.4,0-.18-.12-.3-.31-.3"></path>
    <path class="cls-1" d="M113.25,56.04c-.25-.29-.55-.47-.94-.47-.65,0-1.14.59-1.14,1.22s.52,1.22,1.17,1.22c.38,0,.64-.17.88-.44h.75c-.27.64-.94,1.05-1.62,1.05-1.01,0-1.83-.84-1.83-1.84s.83-1.81,1.82-1.81c.72,0,1.37.41,1.66,1.07h-.74Z"></path>
    <path class="cls-1" d="M116.04,58.62c-1.01,0-1.84-.81-1.84-1.82s.82-1.84,1.84-1.84,1.84.82,1.84,1.84-.83,1.82-1.84,1.82M116.04,55.57c-.67,0-1.19.57-1.19,1.22s.52,1.22,1.19,1.22,1.19-.56,1.19-1.22-.51-1.22-1.19-1.22"></path>
    <path class="cls-1" d="M119.23,58.62c-.62,0-1.12-.46-1.14-1.08h.68c.02.27.18.47.47.47.25,0,.48-.17.48-.44,0-.4-.36-.47-.67-.59-.11-.04-.21-.08-.32-.13-.36-.18-.52-.47-.52-.88,0-.58.45-1,1.03-1s1.01.43,1.04,1h-.66c-.02-.24-.15-.39-.39-.39-.2,0-.36.15-.36.36,0,.34.32.4.58.49.53.18.92.47.92,1.08,0,.67-.49,1.12-1.14,1.12"></path>
    <polygon class="cls-1" points="123.81 58.55 123.81 55.91 123.8 55.91 122.9 58.55 122.35 58.55 121.44 55.91 121.43 55.91 121.43 58.55 120.78 58.55 120.78 55.04 121.69 55.04 122.62 57.7 122.63 57.7 123.56 55.04 124.46 55.04 124.46 58.55 123.81 58.55"></polygon>
    <polygon class="cls-1" points="125.04 58.55 125.04 55.04 126.93 55.04 126.93 55.64 125.69 55.64 125.69 56.5 126.88 56.5 126.88 57.11 125.69 57.11 125.69 57.94 126.93 57.94 126.93 58.55 125.04 58.55"></polygon>
    <polygon class="cls-1" points="128.54 55.64 128.54 58.55 127.89 58.55 127.89 55.64 127.24 55.64 127.24 55.04 129.2 55.04 129.2 55.64 128.54 55.64"></polygon>
    <path class="cls-1" d="M131.19,58.62c-1.01,0-1.84-.81-1.84-1.82s.82-1.84,1.84-1.84,1.84.82,1.84,1.84-.83,1.82-1.84,1.82M131.19,55.57c-.67,0-1.19.57-1.19,1.22s.52,1.22,1.19,1.22,1.19-.56,1.19-1.22-.51-1.22-1.19-1.22"></path>
    <polygon class="cls-1" points="133.52 58.55 133.52 55.04 134.17 55.04 134.17 57.94 135.24 57.94 135.24 58.55 133.52 58.55"></polygon>
    <path class="cls-1" d="M137.25,58.62c-1.01,0-1.84-.81-1.84-1.82s.82-1.84,1.84-1.84,1.84.82,1.84,1.84-.83,1.82-1.84,1.82M137.25,55.57c-.67,0-1.19.57-1.19,1.22s.52,1.22,1.19,1.22,1.19-.56,1.19-1.22-.51-1.22-1.19-1.22"></path>
    <path class="cls-1" d="M141.25,58.62c-1.02,0-1.89-.79-1.89-1.83s.86-1.83,1.87-1.83c.69,0,1.46.43,1.71,1.1h-.78c-.2-.31-.57-.49-.94-.49-.68,0-1.21.55-1.21,1.23,0,.16.04.33.1.47.2.47.63.74,1.14.74.45,0,.84-.25,1.04-.65h-1.47v-.61h2.29v.08c0,1-.88,1.79-1.86,1.79"></path>
    <polygon class="cls-1" points="145.01 57.25 145.01 58.55 144.36 58.55 144.36 57.25 143.21 55.04 143.92 55.04 144.68 56.65 145.45 55.04 146.17 55.04 145.01 57.25"></polygon>
  </g>
</svg>
