<?xml version="1.0" encoding="UTF-8"?>
<svg xmlns="http://www.w3.org/2000/svg" xmlns:xlink="http://www.w3.org/1999/xlink" width="330" height="24" viewBox="0 0 330 24" version="1.1">
  <title>GMC_Logo_oneline-darkblue</title>
  <desc>Created using Figma</desc>
  <g id="Canvas" transform="translate(6742 3060)">
    <g id="GMC_Logo_oneline-darkblue">
      <g id="Group">
        <g id="Shape">
          <use xlink:href="#path0_fill" transform="translate(-6741.86 -3059.1)" fill="#0F265C"></use>
        </g>
        <g id="Shape">
          <use xlink:href="#path1_fill" transform="translate(-6718.42 -3052.28)" fill="#0F265C"></use>
        </g>
        <g id="Shape">
          <use xlink:href="#path2_fill" transform="translate(-6701.85 -3052.28)" fill="#0F265C"></use>
        </g>
        <g id="Shape">
          <use xlink:href="#path3_fill" transform="translate(-6685.29 -3052.28)" fill="#0F265C"></use>
        </g>
        <g id="Shape">
          <use xlink:href="#path4_fill" transform="translate(-6668.65 -3052.35)" fill="#0F265C"></use>
        </g>
        <g id="Shape">
          <use xlink:href="#path5_fill" transform="translate(-6659.51 -3052.42)" fill="#0F265C"></use>
        </g>
        <g id="Shape">
          <use xlink:href="#path6_fill" transform="translate(-6643.22 -3059.66)" fill="#0F265C"></use>
        </g>
      </g>
      <g id="Group">
        <g id="Shape">
          <use xlink:href="#path7_fill" transform="translate(-6626.91 -3059.1)" fill="#0F265C"></use>
        </g>
        <g id="Shape">
          <use xlink:href="#path8_fill" transform="translate(-6601.19 -3052.42)" fill="#0F265C"></use>
        </g>
        <g id="Shape">
          <use xlink:href="#path9_fill" transform="translate(-6584.79 -3059.79)" fill="#0F265C"></use>
        </g>
        <g id="Shape">
          <use xlink:href="#path10_fill" transform="translate(-6566.17 -3058.9)" fill="#0F265C"></use>
        </g>
        <g id="Shape">
          <use xlink:href="#path11_fill" transform="translate(-6559.35 -3052.35)" fill="#0F265C"></use>
        </g>
        <g id="Shape">
          <use xlink:href="#path12_fill" transform="translate(-6544.18 -3052.48)" fill="#0F265C"></use>
        </g>
        <g id="Shape">
          <use xlink:href="#path13_fill" transform="translate(-6527.77 -3059.79)" fill="#0F265C"></use>
        </g>
      </g>
      <g id="Group">
        <g id="Shape">
          <use xlink:href="#path14_fill" transform="translate(-6513.05 -3059.38)" fill="#0F265C"></use>
        </g>
        <g id="Shape">
          <use xlink:href="#path15_fill" transform="translate(-6491.38 -3052.55)" fill="#0F265C"></use>
        </g>
        <g id="Shape">
          <use xlink:href="#path16_fill" transform="translate(-6472.94 -3052.21)" fill="#0F265C"></use>
        </g>
        <g id="Shape">
          <use xlink:href="#path17_fill" transform="translate(-6455.89 -3052.62)" fill="#0F265C"></use>
        </g>
        <g id="Shape">
          <use xlink:href="#path18_fill" transform="translate(-6439.53 -3052.48)" fill="#0F265C"></use>
        </g>
        <g id="Shape">
          <use xlink:href="#path19_fill" transform="translate(-6422.89 -3059.1)" fill="#0F265C"></use>
        </g>
        <g id="Shape">
          <use xlink:href="#path20_fill" transform="translate(-6415.09 -3060)" fill="#0F265C"></use>
        </g>
      </g>
    </g>
  </g>
  <defs>
    <path id="path0_fill" d="M 20.2103 20.4778C 17.9418 21.2363 15.2609 22.4773 11.8237 22.4773C 4.74324 22.4773 0 18.1336 0 11.3076C 0 4.55063 4.74324 0 11.9612 0C 16.292 0 18.6293 1.03423 20.1416 1.99952C 20.1416 2.8269 19.8666 3.65429 19.3854 4.61958L 18.9042 4.61958C 17.5981 2.9648 15.3296 1.58582 12.03 1.58582C 6.53055 1.58582 3.43713 5.79171 3.43713 11.2387C 3.43713 16.8235 7.08049 20.8226 12.2362 20.8226C 13.9548 20.8226 16.0858 20.271 17.2544 19.5125C 17.2544 17.0993 17.1169 12.8934 17.0482 11.5834L 20.3478 11.5834C 20.2791 13.3761 20.2103 19.3057 20.2103 20.4778Z"></path>
    <path id="path1_fill" fill-rule="evenodd" d="M 3.0249 7.86011L 13.1987 7.86011L 13.6797 7.65332C 13.7485 4.61963 12.9238 0 7.21777 0C 2.47461 0 0 3.99902 0 8.13599C 0 11.5835 2.13086 15.7205 7.83643 15.6514C 10.8613 15.6514 12.855 14.4104 13.3359 13.6519C 13.6108 13.1692 13.6108 12.4109 13.4736 11.7212L 13.061 11.7212C 12.5112 12.8245 10.8613 14.0657 8.45557 14.0657C 5.56836 14.0657 3.23096 12.2729 3.0249 7.86011ZM 3.09326 6.41211C 3.36816 2.96484 5.36182 1.37891 7.35547 1.37891C 9.89893 1.37891 10.9985 3.86108 10.7236 6.41211L 3.09326 6.41211Z"></path>
    <path id="path2_fill" d="M 10.3114 15.3067C 10.3801 13.8587 10.5176 7.65333 10.5176 6.55014C 10.5176 3.93009 9.41774 1.99952 6.94301 1.99952C 5.49941 1.99952 2.88719 3.2406 2.88719 7.10174C 2.88719 7.86017 3.02468 14.2724 3.02468 15.3067L 0 15.3067C 0.137485 13.445 0.137485 7.65333 0.137485 6.68804C 0.137485 5.72276 0.0687426 1.79267 0 0.413693L 3.09342 0.413693L 3.02468 2.55111C 3.78085 1.24108 5.43067 0 7.90541 0C 10.9301 0 13.3361 1.93057 13.3361 5.37801C 13.3361 6.68804 13.1986 10.5492 13.1986 11.1008C 13.1986 11.6524 13.2673 14.824 13.3361 15.3756L 10.3114 15.3756L 10.3114 15.3067Z"></path>
    <path id="path3_fill" fill-rule="evenodd" d="M 3.0249 7.86011L 13.1987 7.86011L 13.6797 7.65332C 13.7485 4.61963 12.9238 0 7.21777 0C 2.47461 0 0 3.99902 0 8.13599C 0 11.5835 2.19971 15.6514 7.90527 15.6514C 10.9302 15.6514 12.855 14.4104 13.3359 13.6519C 13.6108 13.1692 13.6108 12.4109 13.4736 11.7212L 13.061 11.7212C 12.5112 12.8245 10.8613 14.0657 8.45557 14.0657C 5.56836 14.0657 3.23096 12.2729 3.0249 7.86011ZM 3.09326 6.41211C 3.36816 2.96484 5.36182 1.37891 7.35547 1.37891C 9.89893 1.37891 10.9985 3.86108 10.7236 6.41211L 3.09326 6.41211Z"></path>
    <path id="path4_fill" d="M 7.56169 3.3785L 7.14924 3.3785C 6.94301 2.75796 6.53055 2.34426 5.84313 2.34426C 3.98707 2.34426 2.88719 4.20588 2.88719 7.10174C 2.88719 7.86017 3.02468 14.2724 3.02468 15.3067L 0 15.3067C 0.137485 13.445 0.137485 7.65333 0.137485 6.68804C 0.137485 5.72276 0.0687426 1.79267 0 0.413693L 3.09342 0.413693L 3.02468 2.75796C 3.50588 1.58582 4.88073 0 6.87427 0C 7.49295 0 7.97415 0.206847 8.31786 0.551591C 8.31786 1.44793 8.04289 2.55111 7.56169 3.3785Z"></path>
    <path id="path5_fill" fill-rule="evenodd" d="M 9.21143 13.8586C 9.55518 15.0308 10.0366 15.5825 11.5488 15.5825C 12.0986 15.5825 13.061 15.3755 13.4736 14.9619L 13.4736 13.8586C 13.1987 14.0657 12.9238 14.1345 12.5801 14.1345C 12.0298 14.1345 11.686 13.6519 11.686 12.4109C 11.686 11.3765 11.8237 6.06738 11.8237 4.89526C 11.8237 2.27539 10.1738 0 6.66797 0C 4.33057 0 2.74951 0.689453 1.58105 1.72363C 1.43164 1.84375 1.35986 2.15967 1.34961 2.53516C 1.33594 3.02246 1.42578 3.60962 1.58105 3.99902L 2.0625 3.99902C 2.74951 2.68896 3.91846 1.65479 5.77441 1.65479C 7.63037 1.65479 9.07422 2.89575 9.07422 4.89526L 9.07422 6.06738C 8.11914 6.43994 7.05518 6.69385 6.00098 6.94531C 2.95801 7.67114 0 8.37671 0 11.8591C 0 13.6519 1.2373 15.7893 4.53711 15.7893C 6.53076 15.7893 7.90527 15.1687 9.21143 13.8586ZM 7.90381 7.90576C 8.26514 7.82495 8.63379 7.74243 9.00537 7.65332L 9.00537 12.2039C 7.76807 13.6519 6.66797 14.2034 5.49951 14.2034C 4.05566 14.2034 2.88721 13.2383 2.88721 11.5835C 2.88721 9.02783 5.18945 8.51294 7.90381 7.90576Z"></path>
    <path id="path6_fill" d="M 0 22.6842C 0.137485 20.8226 0.137485 11.7903 0.137485 10.825C 0.137485 9.85969 0.0687426 1.44793 0 0L 2.95593 0C 2.95593 1.44793 2.81845 9.85969 2.81845 10.825C 2.81845 11.7903 2.88719 20.7536 2.95593 22.6842L 0 22.6842Z"></path>
    <path id="path7_fill" d="M 20.1988 21.9947C 19.7852 16.5477 19.3715 11.9282 18.82 6.68804C 16.2004 12.135 14.1323 16.6167 11.5816 21.9947L 11.0301 21.9947C 8.47935 16.7546 6.06653 11.8592 3.44689 6.68804C 3.17114 9.99759 2.82645 16.6167 2.5507 21.9947L 0 21.9947C 0.827254 14.4793 1.44769 7.44648 2.27495 0L 3.03327 0C 5.79078 5.58486 8.75511 11.1008 11.9952 16.8925C 14.8906 11.3076 17.3723 6.0675 20.3367 0L 20.9571 0C 21.7844 7.37753 22.6116 14.5482 23.5078 21.9947L 20.1988 21.9947Z"></path>
    <path id="path8_fill" fill-rule="evenodd" d="M 3.10205 7.86011L 13.3052 7.86011L 13.7188 7.65332C 13.7876 4.61963 12.9604 0 7.23828 0C 2.48193 0 0 3.99902 0 8.13599C 0 11.5835 2.20605 15.6514 7.92773 15.6514C 10.9609 15.6514 12.9604 14.4104 13.4429 13.6519C 13.7188 13.1692 13.7188 12.4109 13.5806 11.7212L 13.167 11.7212C 12.6157 12.8245 10.9609 14.0657 8.54834 14.0657C 5.65283 14.0657 3.30908 12.2729 3.10205 7.86011ZM 3.1709 6.34326C 3.44678 2.896 5.4458 1.31006 7.44482 1.31006C 9.99561 1.31006 11.1675 3.86108 10.8232 6.34326L 3.1709 6.34326Z"></path>
    <path id="path9_fill" fill-rule="evenodd" d="M 11.7192 20.6846C 11.6504 21.512 11.6504 22.3394 11.6504 22.6841L 14.6147 22.6841C 14.5801 21.7178 14.5454 18.9897 14.5195 16.3845C 14.4941 13.7847 14.4771 11.3071 14.4771 10.825C 14.4771 10.3911 14.5049 8.45264 14.5356 6.31836C 14.5732 3.70459 14.6147 0.797119 14.6147 0L 11.6504 0C 11.6919 0.708496 11.7339 2.97852 11.7603 5.27295C 11.7778 6.77441 11.7886 8.28613 11.7886 9.37695C 11.0991 8.41187 9.65137 7.37744 7.44531 7.37744C 2.61963 7.37744 0 11.3765 0 15.2378C 0 18.2715 1.6543 23.0288 7.16943 23.0288C 9.09961 23.0288 10.6855 22.3394 11.7192 20.6846ZM 3.1709 15.2375C 3.1709 11.3765 5.23926 8.89429 7.58301 8.89429C 10.0645 8.89429 11.9258 10.687 11.9258 15.0996C 11.9258 18.4092 10.5474 21.512 7.44482 21.512C 4.61865 21.512 3.1709 18.823 3.1709 15.2375Z"></path>
    <path id="path10_fill" fill-rule="evenodd" d="M 0 1.86157C 0 2.8269 0.827148 3.72314 1.86133 3.72314C 2.82666 3.72314 3.72266 2.8269 3.72266 1.86157C 3.72266 0.827393 2.89551 0 1.86133 0C 0.895996 0 0 0.827393 0 1.86157ZM 0.344727 13.1692C 0.344727 14.1345 0.344727 19.926 0.207031 21.7878L 3.30908 21.7878C 3.24023 19.926 3.17139 14.1345 3.17139 13.1692C 3.17139 12.561 3.23486 10.5569 3.27539 8.87866C 3.29492 8.08301 3.30908 7.3606 3.30908 6.89478L 0.207031 6.89478C 0.275879 8.27368 0.344727 12.2039 0.344727 13.1692Z"></path>
    <path id="path11_fill" d="M 13.1671 13.6519C 12.6846 14.4103 10.7543 15.6514 7.72104 15.6514C 1.72345 15.6514 0 10.9629 0 7.86017C 0 3.1027 3.30902 0 8.2036 0C 10.2717 0 11.9262 0.551591 13.305 1.58582C 13.305 2.41321 13.0293 3.03375 12.5467 3.93009L 12.0641 3.93009C 11.3747 2.75796 10.2028 1.44793 8.27254 1.44793C 5.17034 1.44793 3.17114 3.93009 3.17114 7.79122C 3.17114 11.9282 5.23928 14.1345 8.34148 14.1345C 10.5475 14.1345 12.4777 12.6866 12.9603 11.7903L 13.3739 11.7903C 13.5118 12.3419 13.4429 13.2382 13.1671 13.6519Z"></path>
    <path id="path12_fill" fill-rule="evenodd" d="M 9.23779 13.7898C 9.58252 14.9619 10.0649 15.5134 11.5815 15.5134C 11.9292 15.5134 12.4688 15.4038 12.9067 15.2537C 13.1631 15.1658 13.3843 15.064 13.5117 14.9619L 13.5117 13.8586C 13.2358 14.0657 12.9604 14.1345 12.6157 14.1345C 12.064 14.1345 11.7192 13.6519 11.7192 12.4109C 11.7192 11.3765 11.8574 6.06738 11.8574 4.89526C 11.8574 2.27539 10.2026 0 6.68701 0C 4.34326 0 2.75732 0.689453 1.58545 1.72363C 1.24072 1.99951 1.31006 3.30957 1.58545 3.99902L 2.06836 3.99902C 2.75732 2.68896 3.92969 1.65479 5.79102 1.65479C 7.65234 1.65479 9.09961 2.89575 9.09961 4.89526L 9.09961 5.99854C 8.14209 6.37109 7.07471 6.625 6.01758 6.87646C 2.96631 7.60229 0 8.30786 0 11.7903C 0 13.583 1.24072 15.7205 4.5498 15.7205C 6.54932 15.7205 7.92773 15.0999 9.23779 13.7898ZM 7.99512 7.83691C 8.35742 7.7561 8.72705 7.67358 9.09961 7.58447L 9.09961 12.135C 7.85889 13.583 6.75586 14.1345 5.58398 14.1345C 4.13623 14.1345 2.96436 13.1694 2.96436 11.5146C 2.96436 8.95898 5.27344 8.44409 7.99512 7.83691Z"></path>
    <path id="path13_fill" d="M 0 22.6842C 0.137876 20.8226 0.137876 11.7903 0.137876 10.825C 0.137876 9.85969 0.0689378 1.44793 0 0L 2.96433 0C 2.96433 1.44793 2.82645 9.85969 2.82645 10.825C 2.82645 11.7903 2.89539 20.8226 2.96433 22.6842L 0 22.6842Z"></path>
    <path id="path14_fill" d="M 19.7437 19.0988C 18.8463 20.4778 15.8778 22.4773 11.8048 22.4773C 2.41619 22.4773 0 15.7893 0 11.3076C 0 3.79219 5.52271 0 11.5977 0C 15.7397 0 17.8798 1.17213 19.3295 2.06847C 19.3295 2.89585 19.0534 3.86114 18.5701 4.68852L 18.0869 4.68852C 16.7752 2.89585 14.4971 1.58582 11.6667 1.58582C 6.07498 1.58582 3.52073 6.2054 3.52073 11.1697C 3.52073 15.5135 6.14402 20.8226 12.219 20.8226C 15.7397 20.8226 18.7082 18.6852 19.6056 17.0304L 20.0198 17.0304C 19.9508 17.582 19.9508 18.892 19.7437 19.0988Z"></path>
    <path id="path15_fill" fill-rule="evenodd" d="M 0 7.86011C 0 10.9629 1.72607 15.6514 7.73193 15.6514C 13.7378 15.6514 15.4634 10.9629 15.4634 7.86011C 15.4634 3.58545 12.7715 0 7.73193 0C 2.76123 0 0 3.58545 0 7.86011ZM 3.17578 7.72241C 3.17578 4.48169 4.62549 1.31006 7.73193 1.31006C 10.8384 1.31006 12.2881 4.48169 12.2881 7.72241C 12.2881 11.4456 10.8384 14.2036 7.73193 14.2036C 4.62549 14.2036 3.17578 11.4456 3.17578 7.72241Z"></path>
    <path id="path16_fill" d="M 13.1855 8.61861C 13.1855 9.5839 13.2545 13.514 13.3235 14.893L 10.217 14.893L 10.2861 12.7555C 9.52668 14.0656 7.86986 15.3067 5.38464 15.3067C 2.34715 15.3067 0 13.3761 0 9.99759C 0 8.68756 0.138068 4.82642 0.138068 4.27483C 0.138068 3.2406 0.0690339 1.10318 0 0L 3.03749 0C 2.96846 1.44793 2.83039 7.65333 2.83039 8.75651C 2.83039 11.3766 3.8659 13.3071 6.42015 13.3071C 7.86986 13.3071 10.4932 12.0661 10.4932 8.20492C 10.4932 7.44648 10.3551 1.03423 10.3551 4.89911e-15L 13.3926 4.89911e-15C 13.1855 1.86162 13.1855 7.65333 13.1855 8.61861Z"></path>
    <path id="path17_fill" d="M 10.3551 15.3067C 10.4241 13.8587 10.5622 7.65333 10.5622 6.55014C 10.5622 3.93009 9.45764 1.99952 6.97242 1.99952C 5.52271 1.99952 2.89942 3.2406 2.89942 7.10174C 2.89942 7.86017 3.03749 14.2724 3.03749 15.3067L 0 15.3067C 0.138068 13.445 0.138068 7.65333 0.138068 6.68804C 0.138068 5.72276 0.0690339 1.79267 0 0.413693L 3.10653 0.413693L 3.03749 2.55111C 3.79686 1.24108 5.45368 0 7.9389 0C 10.9764 0 13.3926 1.93057 13.3926 5.30906C 13.3926 6.61909 13.2545 10.4802 13.2545 11.0318C 13.2545 11.5834 13.3235 14.7551 13.3926 15.3067L 10.3551 15.3067Z"></path>
    <path id="path18_fill" d="M 12.9093 3.72324L 12.4261 3.72324C 11.8048 2.48216 10.4241 1.24108 8.42214 1.24108C 5.31561 1.24108 3.17556 3.79219 3.17556 7.65333C 3.17556 11.9971 5.79885 13.9966 8.49117 13.9966C 10.6312 13.9966 12.5642 12.8934 13.1855 11.7213L 13.5997 11.7213C 13.7377 12.3419 13.6687 13.2382 13.3926 13.6519C 13.0474 14.1345 11.6667 15.6514 7.86986 15.6514C 2.62329 15.6514 0 11.6524 0 7.86017C 0 4.82642 1.72585 0 8.21503 0C 11.1145 0 12.4261 0.689489 13.6687 1.58582C 13.6687 2.27531 13.3926 2.89585 12.9093 3.72324Z"></path>
    <path id="path19_fill" fill-rule="evenodd" d="M 0 1.86157C 0 2.8269 0.828613 3.72314 1.86377 3.72314C 2.89941 3.72314 3.72803 2.89575 3.72803 1.86157C 3.72803 0.827393 2.89941 0 1.86377 0C 0.897461 0 0 0.827393 0 1.86157ZM 0.414551 13.1692C 0.414551 14.1345 0.414551 19.926 0.276367 21.7878L 3.38281 21.7878C 3.31396 19.926 3.24463 14.1345 3.24463 13.1692C 3.24463 12.2039 3.38281 8.34277 3.38281 6.89478L 0.276367 6.89478C 0.345215 8.27368 0.414551 12.2039 0.414551 13.1692Z"></path>
    <path id="path20_fill" d="M 0 22.6842C 0.138068 20.8226 0.138068 11.7903 0.138068 10.825C 0.138068 9.85969 0.0690339 1.44793 0 0L 2.96846 0C 2.96846 1.44793 2.83039 9.85969 2.83039 10.825C 2.83039 11.7903 2.89942 20.7536 2.96846 22.6842L 0 22.6842Z"></path>
  </defs>
</svg>
