<?xml version="1.0" encoding="UTF-8"?>
<svg xmlns="http://www.w3.org/2000/svg" id="Layer_2" data-name="Layer 2" viewBox="0 0 599.71 182.4">
  <defs>
    <style>
      .cls-1 {
        fill-rule: evenodd;
      }

      .cls-1, .cls-2 {
        fill: #fff;
        stroke-width: 0px;
      }
    </style>
  </defs>
  <g id="Layer_1-2" data-name="Layer 1">
    <g id="logo">
      <path id="logotype" class="cls-2" d="M203.2,50.2c4.2-2.1,6.4-5,6.1-8.7.16-2.53-.97-4.98-3-6.5-2-1.5-5-2.2-8.9-2.2-1,0-2.2,0-3.6.1-1.9.1-3.2.1-4,.1-.77.02-1.54,0-2.3-.1-1.1-.1-1.7-.1-1.8-.1-.6,0-.9.2-.9.5s.2.5.8.6l1.2.2c1.9.3,2.8,1.8,2.8,4.4l.1,2.6v18.2c.11,1.95-.09,3.91-.6,5.8-.55,1.01-1.56,1.68-2.7,1.8-.4.1-.6.2-.6.5s.2.5.6.5c.47,0,.94-.03,1.4-.1.7-.08,1.4-.11,2.1-.1h3.8c1.1-.03,2.2,0,3.3.1.5.07,1,.1,1.5.1.6,0,.9-.2.9-.5-.1-.3-.4-.5-1-.6-1.21-.06-2.39-.44-3.4-1.1-.48-.34-.83-.83-1-1.4-.15-.99-.22-2-.2-3v-8.9c0-.4.1-.7.3-.8l.6-.1h3.4c.8-.07,1.58.31,2,1l.4.6,6.4,9.6c.94,1.6,2.2,3,3.7,4.1,1.22.8,2.64,1.22,4.1,1.2.84.01,1.68-.09,2.5-.3.7-.2,1.1-.4,1.1-.7.1-.3-.1-.4-.4-.4l-.8-.1c-1.8-.1-3.8-1.8-6-4.9l-.8-1.2-7.1-10.2M195.7,49.7c-.55.05-1.1-.05-1.6-.3-.26-.45-.37-.98-.3-1.5v-11.2c-.09-.66.13-1.32.6-1.8.63-.38,1.37-.55,2.1-.5,2.46-.08,4.85.78,6.7,2.4,1.71,1.56,2.66,3.79,2.6,6.1.12,1.86-.58,3.68-1.9,5-1.47,1.26-3.37,1.9-5.3,1.8h-2.9M228.1,46.3c-3-.12-5.91,1.04-8,3.2-2.16,2.01-3.36,4.85-3.3,7.8-.13,2.92,1,5.76,3.1,7.8,2.16,2.02,5.04,3.1,8,3,3.04.11,5.99-1.01,8.2-3.1,2.11-2.08,3.27-4.94,3.2-7.9.02-2.89-1.18-5.65-3.3-7.6-2.1-2.08-4.94-3.23-7.9-3.2M227.4,47.3c2.38-.09,4.61,1.14,5.8,3.2,1.6,2.39,2.41,5.22,2.3,8.1.12,2.21-.51,4.4-1.8,6.2-1.21,1.51-3.06,2.37-5,2.3-2.46-.01-4.75-1.25-6.1-3.3-1.65-2.37-2.49-5.21-2.4-8.1-.08-2.21.63-4.37,2-6.1,1.3-1.5,3.21-2.35,5.2-2.3M246.3,51.9l5.1,11.9,3.9-10.4c.37-.96.58-1.97.6-3,.07-.66-.15-1.31-.6-1.8-.68-.43-1.42-.73-2.2-.9-.4-.1-.6-.3-.6-.6,0-.4.2-.5.5-.5.34,0,.67.03,1,.1.76.11,1.53.14,2.3.1h3.9s.04,0,.06,0c.26.02.46.24.44.5,0,.2-.1.4-.5.6-.51.23-.98.53-1.4.9-.4.51-.71,1.08-.9,1.7l-9.1,25.2-.3.8c-.2.5-.3.7-.5.8-.59.11-1.2.15-1.8.1-1.1,0-1.7-.1-1.7-.4.04-.19.15-.37.3-.5,1.22-1.25,2.26-2.66,3.1-4.2.7-1.19,1.15-2.52,1.3-3.9-.2-1.04-.54-2.05-1-3l-6.4-14.8c-.3-.7-.67-1.37-1.1-2-.38-.4-.86-.68-1.4-.8-.4-.1-.6-.3-.6-.5,0-.4.2-.6.7-.6.47-.01.94.02,1.4.1.86.11,1.73.14,2.6.1,1.13.03,2.27,0,3.4-.1.29-.07.6-.11.9-.1.5,0,.7.2.7.5s-.5.5-1.4.6c-1,.2-1.5.6-1.5,1.3.07.98.34,1.93.8,2.8h0ZM272.9,56.4c-4.3.6-7.3,1.5-9.1,2.8-1.67.88-2.71,2.61-2.7,4.5-.03,1.28.48,2.51,1.4,3.4,1.04.93,2.41,1.4,3.8,1.3,2.1,0,4.4-1,6.9-2.8,1.1,1.7,2.4,2.5,3.8,2.5.79-.03,1.57-.2,2.3-.5.8-.3,1.2-.6,1.2-.9s-.1-.4-.4-.4c-.2,0-.41.03-.6.1h-.6c-.78.07-1.52-.32-1.9-1-.49-1.03-.7-2.17-.6-3.3v-9.9c.1-1.66-.61-3.26-1.9-4.3-1.58-1.08-3.48-1.61-5.4-1.5-2.28-.1-4.5.77-6.1,2.4-.96.89-1.56,2.1-1.7,3.4,0,.4.4.8,1,1.1.65.33,1.37.5,2.1.5.02,0,.04,0,.06,0,.26-.02.46-.24.44-.5-.03-.27-.1-.54-.2-.8-.19-.62-.29-1.26-.3-1.9,0-1.9,1.1-2.8,3.4-2.8,1.48-.08,2.93.47,4,1.5.7.7,1.1,2.1,1.1,4v3.1M272.9,57.4v5c.08.98-.25,1.96-.9,2.7-.98.91-2.27,1.41-3.6,1.4-1.03.07-2.05-.29-2.8-1-.71-.71-1.07-1.7-1-2.7.04-1.51.88-2.88,2.2-3.6,1.84-1.13,3.94-1.75,6.1-1.8h0ZM289.1,31.1l-.1.9v29.8c-.04,1.09.13,2.18.5,3.2.4.8,1.5,1.4,3.2,1.7.4.1.7.2.7.5.1.3-.1.5-.5.5-.24,0-.47-.02-.7-.1-.39-.09-.8-.13-1.2-.1h-3.5c-1-.04-2-.01-3,.1-.33.06-.66.1-1,.1-.4,0-.7-.2-.7-.5s.2-.5.7-.6c.62-.1,1.19-.42,1.6-.9.32-.54.46-1.17.4-1.8v-28.1c0-1.5-.6-2.3-1.7-2.3l-1.3.1c-.1,0-.3-.1-.4-.1-.2-.1-.3-.2-.3-.4,0-.3.2-.5.7-.6.6-.2,1.1-.3,1.6-.5l1.6-.6c.86-.34,1.7-.74,2.5-1.2.15-.09.32-.16.5-.2.3,0,.4.3.4,1.1h0ZM340.1,35.8l.8,5.6.1.6-.1.3c-.1.2-.2.3-.4.3s-.5-.4-.9-1.1c-3.2-5.5-7.5-8.3-13-8.3-4.4,0-7.8,1.3-10.3,4s-3.8,6.3-3.8,10.9c0,5.3,1.4,9.6,4.2,13,2.64,3.24,6.62,5.09,10.8,5,2.67.01,5.29-.68,7.6-2,2.2-1.06,4.01-2.77,5.2-4.9.4-.9.8-1.4,1-1.4.3,0,.4.2.4.5v.3l-.1.6-.6,3.1-.1.5c-.1.5-.5.9-1.2,1.4-3.88,2.47-8.4,3.75-13,3.7-5.5,0-9.9-1.6-13.3-4.8-3.3-3.2-5-7.4-5-12.7-.01-.35-.01-.7,0-1.05.29-9.82,8.48-17.54,18.3-17.25,3.45-.04,6.85.79,9.9,2.4l1,.5.4.2.4.2c.1,0,.2-.1.4-.2.23-.2.5-.34.8-.4.2,0,.4.4.5,1M355.6,46.3c-2.99-.08-5.89,1.08-8,3.2-2.16,2.01-3.36,4.85-3.3,7.8-.13,2.92,1,5.76,3.1,7.8,2.16,2.02,5.04,3.1,8,3,3.04.11,5.99-1.01,8.2-3.1,2.11-2.08,3.27-4.94,3.2-7.9.02-2.89-1.18-5.65-3.3-7.6-2.1-2.08-4.94-3.23-7.9-3.2M355,47.3c2.37-.07,4.59,1.16,5.8,3.2,1.6,2.39,2.41,5.22,2.3,8.1.12,2.21-.51,4.4-1.8,6.2-1.21,1.51-3.06,2.37-5,2.3-2.46-.01-4.75-1.25-6.1-3.3-1.65-2.37-2.49-5.21-2.4-8.1-.08-2.21.63-4.37,2-6.1,1.3-1.5,3.21-2.35,5.2-2.3M374.6,31.1v30.7c-.04,1.09.13,2.18.5,3.2.3.8,1.4,1.4,3.1,1.7.4.1.7.2.7.5.1.3-.1.5-.5.5-.24,0-.47-.02-.7-.1-.39-.09-.8-.13-1.2-.1h-3.5c-1-.04-2-.01-3,.1-.33.06-.66.1-1,.1-.4,0-.7-.2-.7-.5s.2-.5.7-.6c.62-.1,1.19-.42,1.6-.9.32-.54.46-1.17.4-1.8v-28.1c0-1.5-.6-2.3-1.7-2.3l-1.3.1c-.1,0-.3-.1-.4-.1-.2-.1-.3-.2-.3-.4,0-.3.3-.5.7-.6.6-.2,1.1-.3,1.6-.5l1.6-.6c.86-.34,1.7-.74,2.5-1.2.15-.09.32-.16.5-.2.3,0,.4.3.4,1.1h0ZM387.4,31.1v30.7c-.04,1.09.13,2.18.5,3.2.3.8,1.4,1.4,3.1,1.7.4.1.7.2.7.5.1.3-.1.5-.5.5-.24,0-.47-.02-.7-.1-.39-.09-.8-.13-1.2-.1h-3.5c-1-.04-2-.01-3,.1-.33.06-.66.1-1,.1-.5,0-.7-.2-.7-.5s.2-.5.7-.6c.62-.1,1.19-.42,1.6-.9.32-.54.46-1.17.4-1.8v-28.1c0-1.5-.6-2.3-1.7-2.3l-1.3.1c-.1,0-.3-.1-.4-.1-.2-.1-.3-.2-.3-.4,0-.3.3-.5.7-.6.6-.2,1.1-.3,1.6-.5l1.6-.6c.86-.34,1.7-.74,2.5-1.2.15-.09.32-.16.5-.2.3,0,.4.3.4,1.1h0ZM395.6,54.8h9.6l1.7.1h1.9c1.1,0,1.7-.2,1.7-.8-.1-.69-.31-1.37-.6-2-.38-.79-.82-1.56-1.3-2.3-1.54-2.23-4.09-3.54-6.8-3.5-2.65.01-5.15,1.23-6.8,3.3-1.88,2.12-2.91,4.86-2.9,7.7-.1,2.86.9,5.66,2.8,7.8,1.75,2.03,4.32,3.16,7,3.1,2.56-.04,5.03-.96,7-2.6,1.2-.9,1.8-1.6,1.8-2.1,0-.02,0-.05,0-.07-.02-.2-.2-.35-.4-.33-.15.02-.29.09-.4.2-1.66,1.49-3.77,2.37-6,2.5-2.33,0-4.52-1.12-5.9-3-1.63-2.08-2.48-4.66-2.4-7.3v-.7ZM395.7,53.5c.1-1.65.73-3.23,1.8-4.5.84-1.08,2.13-1.71,3.5-1.7,1.41.05,2.74.66,3.7,1.7,1.02.97,1.63,2.29,1.7,3.7,0,.5-.7.8-2,.8h-8.7M416,68.3c-2.5.8-3.7,2.2-3.9,4.1,0,1.5.9,2.7,2.6,3.6,2.09,1,4.39,1.48,6.7,1.4,2.55.1,5.07-.6,7.2-2,1.74-1.03,2.83-2.88,2.9-4.9.11-1.52-.73-2.95-2.1-3.6-2.32-.78-4.76-1.12-7.2-1-1.62.08-3.25-.12-4.8-.6-.83-.26-1.39-1.03-1.4-1.9.05-.67.33-1.31.8-1.8.38-.52.96-.85,1.6-.9.27-.01.54.02.8.1,1.02.19,2.06.29,3.1.3,2.07.04,4.07-.71,5.6-2.1,1.51-1.22,2.39-3.06,2.4-5,.05-.71-.01-1.42-.2-2.1-.07-.16-.11-.33-.1-.5,0-.2.2-.4.5-.5.63-.2,1.17-.62,1.5-1.2.28-.68.51-1.39.7-2.1.22-.65.35-1.32.4-2,0-.4-.1-.6-.4-.6-.2,0-.4.1-.4.3l-.3,1c-.31.58-.8,1.03-1.4,1.3-.65.36-1.36.56-2.1.6-.48-.08-.93-.29-1.3-.6-1.66-1.01-3.56-1.53-5.5-1.5-2.09-.07-4.11.73-5.6,2.2-1.47,1.45-2.27,3.44-2.2,5.5-.19,2.58,1.14,5.04,3.4,6.3-1.81,1.07-2.94,3-3,5.1.03,1.19.68,2.29,1.7,2.9v.2M417.1,68.7c1.04.27,2.12.41,3.2.4l2.7.2c1.5.1,2.4.2,2.7.2,2.4,0,3.6.7,3.6,2.3,0,1.3-.8,2.4-2.4,3.3-1.82.93-3.85,1.38-5.9,1.3-1.64.08-3.27-.3-4.7-1.1-.7-.45-1.23-1.13-1.5-1.92-.66-1.93.37-4.03,2.3-4.68M421.8,47.2c1.5-.03,2.9.73,3.7,2,.95,1.53,1.44,3.3,1.4,5.1.08,1.51-.38,3-1.3,4.2-.75,1.06-2,1.66-3.3,1.6-1.46-.02-2.81-.77-3.6-2-.98-1.52-1.47-3.3-1.4-5.1-.06-1.48.4-2.93,1.3-4.1.72-1.06,1.92-1.7,3.2-1.7M438.2,54.8h9.6l1.7.1h1.9c1.1,0,1.7-.2,1.7-.8-.1-.69-.31-1.37-.6-2-.38-.79-.82-1.56-1.3-2.3-1.54-2.23-4.09-3.54-6.8-3.5-2.65.01-5.15,1.23-6.8,3.3-1.88,2.12-2.91,4.86-2.9,7.7-.1,2.86.9,5.66,2.8,7.8,1.75,2.03,4.32,3.16,7,3.1,2.56-.04,5.03-.96,7-2.6,1.2-.9,1.8-1.6,1.8-2.1,0-.02,0-.05,0-.07-.02-.2-.2-.35-.4-.33-.15.02-.29.09-.4.2-1.65,1.5-3.77,2.39-6,2.5-2.33,0-4.52-1.12-5.9-3-1.63-2.08-2.48-4.66-2.4-7.3v-.7ZM438.3,53.5c.1-1.65.73-3.23,1.8-4.5.84-1.08,2.13-1.71,3.5-1.7,2.89.22,5.18,2.51,5.4,5.4,0,.5-.6.8-2,.8h-8.7M480.8,46.3c-3-.12-5.91,1.04-8,3.2-2.16,2.01-3.36,4.85-3.3,7.8-.13,2.92,1,5.76,3.1,7.8,2.16,2.02,5.04,3.1,8,3,3.04.11,5.99-1.01,8.2-3.1,2.11-2.08,3.27-4.94,3.2-7.9.02-2.89-1.18-5.65-3.3-7.6-2.1-2.08-4.94-3.23-7.9-3.2M480.1,47.3c2.37-.07,4.59,1.16,5.8,3.2,1.6,2.39,2.41,5.22,2.3,8.1.12,2.21-.51,4.4-1.8,6.2-1.21,1.51-3.06,2.37-5,2.3-2.46-.01-4.75-1.25-6.1-3.3-1.65-2.37-2.49-5.21-2.4-8.1-.08-2.21.63-4.37,2-6.1,1.3-1.5,3.21-2.35,5.2-2.3M501.3,44.3v2.2h4.3c.38.04.76-.03,1.1-.2l.4-.4c.1-.12.24-.2.4-.2.3,0,.4.1.4.4-.05.21-.12.41-.2.6l-.4,1.1c-.2.6-.6,1-1,1h-4.8v14.1c-.12.94.09,1.9.6,2.7.64.55,1.46.83,2.3.8.7.1,1,.3,1,.6s-.2.5-.7.5c-.53,0-1.07-.04-1.6-.1-.53-.08-1.06-.11-1.6-.1-1.43-.04-2.87,0-4.3.1-.29.07-.6.11-.9.1-.5,0-.7-.1-.7-.5,0-.2.2-.4.5-.5l.5-.2c.5-.09.92-.43,1.1-.9.24-.71.34-1.45.3-2.2v-14.3h-3c-.6,0-.8-.1-.8-.3.03-.49.17-.97.4-1.4.25-.29.62-.44,1-.4h2.4c.03-3.36.89-6.65,2.5-9.6,1.01-1.79,2.41-3.33,4.1-4.5,1.36-1.03,3-1.62,4.7-1.7,1.5,0,2.2.4,2.2,1,.02.21-.02.41-.1.6l-.3.9c-.3,1.1-.7,1.7-1,1.7-.1,0-.3-.1-.4-.4-.4-.8-1.3-1.2-2.7-1.2-3.8,0-5.7,3.6-5.7,10.7h0ZM214.4,112.5v-5.5c.1-.77-.16-1.54-.7-2.1-.81-.51-1.75-.75-2.7-.7-.6-.1-1-.3-1-.7,0-.3.3-.5.9-.5h2.9c2.6,0,4.2-.1,4.6-.1,1.2,0,1.9-.1,2.1-.1.4,0,.6.2.6.5s-.3.5-.8.6c-1.3.3-1.9,1.2-1.9,2.8v9l.1.8-.2.4c-.2.16-.45.23-.7.2-.73.24-1.43.54-2.1.9l-1.7,1c-3.25,1.9-6.94,2.9-10.7,2.9-4.7.18-9.26-1.6-12.6-4.9-3.3-3.3-5.07-7.83-4.9-12.5-.16-4.96,1.72-9.77,5.2-13.3,3.41-3.49,8.12-5.41,13-5.3,2.16.02,4.31.33,6.4.9,1.92.35,3.75,1.06,5.4,2.1.2.1.3.2.4.2.18-.04.35-.11.5-.2l.6-.5c.2-.1.3-.2.4-.2.3,0,.5.4.5,1.2,0,.4.1.9.2,1.7l.3,2.4c.09.64.22,1.28.4,1.9.08.23.11.46.1.7,0,.4-.2.6-.5.6s-.4-.1-.6-.4c-1.41-2.71-3.56-4.97-6.2-6.5-2.64-1.64-5.69-2.51-8.8-2.5-3.66-.13-7.18,1.46-9.5,4.3-2.5,2.9-3.7,6.6-3.7,11.2-.15,4.48,1.35,8.85,4.2,12.3,2.52,3.17,6.35,5.02,10.4,5,4,0,7.1-1.3,9.3-4.1.6-1.06.88-2.28.8-3.5M226.7,108.5h9.6l1.7.1h1.9c1.1,0,1.7-.2,1.7-.8-.1-.69-.31-1.37-.6-2-.38-.79-.82-1.56-1.3-2.3-1.54-2.23-4.09-3.54-6.8-3.5-2.65.01-5.15,1.23-6.8,3.3-1.88,2.12-2.91,4.86-2.9,7.7-.1,2.86.9,5.66,2.8,7.8,1.75,2.03,4.32,3.16,7,3.1,2.56-.04,5.03-.96,7-2.6,1.2-1,1.8-1.7,1.8-2.2,0-.02,0-.05,0-.07-.02-.2-.2-.35-.4-.33-.15.02-.29.09-.4.2-1.65,1.5-3.77,2.39-6,2.5-2.33,0-4.52-1.12-5.9-3-1.63-2.08-2.48-4.66-2.4-7.3v-.6h0ZM226.8,107.1c.14-1.64.77-3.21,1.8-4.5.84-1.08,2.13-1.71,3.5-1.7,2.89.22,5.18,2.51,5.4,5.4,0,.5-.7.8-2,.8h-8.7M250.5,101v2.7c2.3-2.7,4.6-4,7.1-4,2.56-.07,4.97,1.18,6.4,3.3,1.1,1.5,1.6,3.8,1.6,6.9v6.9l.1,1.2c.12,1.09,1.01,1.93,2.1,2l1.1.2c.4.1.7.2.7.5.1.4-.2.6-.8.6-.34,0-.67-.03-1-.1-1.03-.1-2.07-.13-3.1-.1l-2.5.1h-1l-.7.1-.4-.1c-.12-.1-.2-.24-.2-.4,0-.3.2-.4.5-.5l.8-.2c.7-.1,1-.7,1-1.8v-8.8c.15-1.97-.42-3.92-1.6-5.5-1.15-1.31-2.85-2.02-4.6-1.9-1.34.02-2.64.48-3.7,1.3-.98.6-1.58,1.65-1.6,2.8v11.7c.1,1.4,1.3,2.2,3.6,2.3.5.1.8.3.8.6s-.2.5-.6.5c-.44-.04-.87-.11-1.3-.2-.79-.11-1.6-.14-2.4-.1-2.7,0-4.4,0-4.9.1-.33.07-.66.1-1,.1-.4,0-.5-.1-.5-.4,0-.2.2-.4.5-.5.69-.18,1.32-.57,1.8-1.1.38-.63.55-1.37.5-2.1v-11.4c.09-.82-.05-1.65-.4-2.4-.44-.45-1.07-.67-1.7-.6h-1.1c-.14.01-.28-.02-.4-.1-.12-.1-.2-.24-.2-.4,0-.2.2-.4.7-.5,1.14-.19,2.25-.53,3.3-1l1.4-.7c.5-.3.9-.4,1-.5.18-.11.39-.18.6-.2.3,0,.4.2.4.7v1h-.3ZM273.8,108.5h9.6l1.7.1h1.9c1.1,0,1.7-.2,1.7-.8-.1-.69-.31-1.37-.6-2-.38-.79-.82-1.56-1.3-2.3-1.54-2.23-4.09-3.54-6.8-3.5-2.65.01-5.15,1.23-6.8,3.3-1.88,2.12-2.91,4.86-2.9,7.7-.1,2.86.9,5.66,2.8,7.8,1.75,2.03,4.32,3.16,7,3.1,2.56-.04,5.03-.96,7-2.6,1.2-1,1.8-1.7,1.8-2.2,0-.02,0-.05,0-.07-.02-.2-.2-.35-.4-.33-.15.02-.29.09-.4.2-1.65,1.5-3.77,2.39-6,2.5-2.33,0-4.52-1.12-5.9-3-1.63-2.08-2.48-4.66-2.4-7.3v-.6h0ZM274,107.1c.1-1.65.73-3.23,1.8-4.5.84-1.08,2.13-1.71,3.5-1.7,2.89.22,5.18,2.51,5.4,5.4,0,.5-.6.8-2,.8h-8.7M298.1,100.7v4c2-3.1,3.8-4.6,5.5-4.6.77.11,1.49.42,2.1.9.8.6,1.3,1.1,1.3,1.5,0,.3-.2.7-.8,1.4-.6.6-1,1-1.2,1-.4-.14-.77-.34-1.1-.6-.63-.41-1.35-.65-2.1-.7-.99-.05-1.94.36-2.6,1.1-.65.79-1.01,1.78-1,2.8v9c-.08,1.04.13,2.07.6,3,.47.64,1.21,1.01,2,1l1.3.1c.5,0,.8.2.8.5s-.2.5-.7.5c-.4,0-.8-.04-1.2-.1-.46-.1-.93-.13-1.4-.1h-3c-.97-.03-1.94,0-2.9.1-.29.07-.6.11-.9.1-.5,0-.7-.2-.7-.5s.3-.5.8-.6c.6-.02,1.13-.37,1.4-.9.26-.94.36-1.92.3-2.9v-10.8c0-1.9-.9-2.9-2.8-2.9h-.9c-.05,0-.1,0-.15,0-.29-.04-.49-.31-.45-.6,0-.24.17-.45.4-.5.19-.08.39-.12.6-.1,2.03-.39,3.97-1.17,5.7-2.3.18-.11.39-.18.6-.2.4,0,.6.3.6.9v.5h-.1ZM321,110c-4.3.6-7.3,1.5-9.1,2.8-1.67.88-2.71,2.61-2.7,4.5-.03,1.28.48,2.51,1.4,3.4,1.04.93,2.41,1.4,3.8,1.3,2.1,0,4.4-1,6.9-2.8,1.1,1.7,2.4,2.5,3.8,2.5.79-.03,1.57-.2,2.3-.5.8-.3,1.2-.6,1.2-.9s-.1-.4-.4-.4c-.2,0-.41.03-.6.1h-.6c-.78.07-1.52-.32-1.9-1-.49-1.03-.7-2.17-.6-3.3v-9.9c.12-1.66-.59-3.27-1.9-4.3-1.58-1.08-3.48-1.61-5.4-1.5-2.28-.1-4.5.77-6.1,2.4-.96.89-1.56,2.1-1.7,3.4,0,.4.4.8,1,1.1.65.33,1.37.5,2.1.5.02,0,.04,0,.06,0,.26-.02.46-.24.44-.5-.03-.27-.1-.54-.2-.8-.19-.62-.29-1.26-.3-1.9,0-1.9,1.1-2.8,3.4-2.8,1.48-.08,2.93.47,4,1.5.7.7,1.1,2.1,1.1,4v3.1M321,111v5c.08.98-.25,1.96-.9,2.7-.98.91-2.27,1.41-3.6,1.4-1.03.07-2.05-.29-2.8-1-.71-.71-1.07-1.7-1-2.7.04-1.51.88-2.88,2.2-3.6,1.84-1.13,3.94-1.75,6.1-1.8h0ZM337.1,84.7v30.8c-.04,1.09.13,2.18.5,3.2.3.8,1.4,1.4,3.1,1.7.4.1.7.2.7.5.1.3-.1.5-.5.5-.24-.03-.48-.1-.7-.2-.39-.09-.8-.13-1.2-.1h-3.5c-1-.04-2-.01-3,.1-.34,0-.67.04-1,.1-.4,0-.7-.2-.7-.5s.2-.5.7-.6c.62-.1,1.19-.42,1.6-.9.32-.54.46-1.17.4-1.8v-28.1c0-1.5-.6-2.3-1.7-2.3l-1.3.1c-.1,0-.3-.1-.4-.1-.2-.1-.3-.2-.3-.4,0-.3.2-.5.7-.6.6-.2,1.1-.3,1.6-.5l1.6-.6c.86-.34,1.7-.74,2.5-1.2.15-.09.32-.16.5-.2.3,0,.4.3.4,1.1h0ZM365.4,89.8l.2.9v23.6l.1,2.1c.2,2.1.9,3.3,2.3,3.6.67.24,1.38.38,2.1.4.5,0,.8.1.8.4,0,.4-.3.6-.9.6-.57,0-1.14-.03-1.7-.1-.9-.1-1.8-.13-2.7-.1l-1.8-.1h-2c-.77-.03-1.54,0-2.3.1-.5.07-1,.1-1.5.1-.5,0-.7-.2-.7-.5s.2-.5.8-.6c1.25-.14,2.31-1,2.7-2.2.5-1.3.7-3.6.7-6.9v-15.3c0-3.5-.2-5.8-.6-6.7-.4-1-1.5-1.5-3.2-1.7-.5,0-.7-.2-.7-.5,0-.4.4-.6,1-.6.44,0,.87.03,1.3.1,1.1.1,2,.2,2.7.2,1.1,0,2.7-.1,4.8-.3.86-.08,1.73-.11,2.6-.1,3.6,0,6.5.8,8.7,2.5,2.11,1.53,3.35,3.99,3.3,6.6.07,3.13-1.48,6.08-4.1,7.8-1.9,1.35-4.17,2.08-6.5,2.1-1.01,0-2.01-.09-3-.3-.9-.2-1.3-.4-1.3-.7.07-.21.28-.33.5-.3.17,0,.34.03.5.1.62.14,1.26.21,1.9.2,2.11.08,4.18-.64,5.8-2,1.5-1.34,2.3-3.29,2.2-5.3.04-2.46-1.02-4.81-2.9-6.4-2.03-1.73-4.64-2.63-7.3-2.5-.5-.07-1.01.08-1.4.4-.3.2-.4.7-.4,1.4h0ZM390.3,100.7v4c2-3.1,3.8-4.6,5.5-4.6.77.11,1.49.42,2.1.9.8.6,1.3,1.1,1.3,1.5,0,.3-.2.7-.8,1.4-.6.6-1,1-1.2,1-.4-.14-.77-.34-1.1-.6-.63-.41-1.35-.65-2.1-.7-.99-.05-1.94.36-2.6,1.1-.65.79-1.01,1.78-1,2.8v9c-.08,1.04.13,2.07.6,3,.47.64,1.21,1.01,2,1l1.3.1c.5,0,.8.2.8.5s-.2.5-.7.5c-.4,0-.8-.04-1.2-.1-.46-.1-.93-.13-1.4-.1h-3c-.97-.03-1.94,0-2.9.1-.29.07-.6.11-.9.1-.5,0-.7-.2-.7-.5s.3-.5.8-.6c.6-.02,1.13-.37,1.4-.9.26-.94.36-1.92.3-2.9v-10.8c0-1.9-.9-2.9-2.8-2.9h-.9c-.05,0-.1,0-.15,0-.29-.04-.49-.31-.45-.6,0-.24.17-.45.4-.5.19-.08.39-.12.6-.1,2.03-.39,3.97-1.17,5.7-2.3.18-.11.39-.18.6-.2.4,0,.6.3.6.9v.5h-.1ZM413.3,110c-4.3.6-7.3,1.5-9.1,2.8-1.67.88-2.71,2.61-2.7,4.5-.03,1.28.48,2.51,1.4,3.4,1.04.93,2.41,1.4,3.8,1.3,2.1,0,4.4-1,6.9-2.8,1.1,1.7,2.4,2.5,3.8,2.5.79-.03,1.57-.2,2.3-.5.8-.3,1.2-.6,1.2-.9s-.1-.4-.4-.4c-.2,0-.41.03-.6.1h-.6c-.78.07-1.52-.32-1.9-1-.49-1.03-.7-2.17-.6-3.3v-9.9c.12-1.66-.59-3.27-1.9-4.3-1.58-1.08-3.48-1.61-5.4-1.5-2.28-.1-4.5.77-6.1,2.4-.96.89-1.56,2.1-1.7,3.4,0,.4.4.8,1,1.1.65.33,1.37.5,2.1.5.02,0,.04,0,.06,0,.26-.02.46-.24.44-.5-.03-.27-.1-.54-.2-.8-.19-.62-.29-1.26-.3-1.9,0-1.9,1.1-2.8,3.4-2.8,1.48-.08,2.93.47,4,1.5.7.7,1.1,2.1,1.1,4v3.1M413.3,111v5c.08.98-.25,1.96-.9,2.7-.98.91-2.27,1.41-3.6,1.4-1.03.07-2.05-.29-2.8-1-.71-.71-1.07-1.7-1-2.7.04-1.51.88-2.88,2.2-3.6,1.84-1.13,3.94-1.75,6.1-1.8h0ZM432.8,99.9c1.31-.11,2.62.13,3.8.7,1.1.3,1.7.7,1.7,1.2v.8l.2,1.9c0,.9-.2,1.4-.6,1.4-.2,0-.4-.3-.7-.8-.62-1.09-1.56-1.97-2.7-2.5-1.12-.67-2.39-1.05-3.7-1.1-1.67.02-3.21.88-4.1,2.3-1.15,1.71-1.71,3.74-1.6,5.8-.08,2.58.77,5.1,2.4,7.1,1.42,1.82,3.59,2.89,5.9,2.9,2.05-.1,3.99-.92,5.5-2.3.15-.18.37-.28.6-.3.3-.1.4,0,.4.3s-.4.9-1.2,1.6c-2.08,1.88-4.8,2.88-7.6,2.8-2.58.09-5.08-.97-6.8-2.9-1.81-2-2.77-4.61-2.7-7.3-.05-3.07,1.14-6.02,3.3-8.2,2.02-2.21,4.9-3.45,7.9-3.4M454.1,102.8h-6.1v12.7c0,1.6.2,2.7.7,3.2.81.76,1.89,1.16,3,1.1.9.03,1.8-.18,2.6-.6l1.3-.6.2-.1s.05,0,.08,0c.14.02.25.16.22.3,0,.5-.7,1.1-2,1.8-1.17.63-2.47.98-3.8,1-3.9,0-5.9-2-5.9-6v-12.7h-2.3c-.5,0-.7-.1-.7-.4,0-.2.2-.5.7-.9,1.77-1.47,3.32-3.18,4.6-5.1.5-.7.8-1.1,1-1.1.3,0,.4.3.4.7l-.1,4.4h5.4c.59.05,1.19-.09,1.7-.4.18-.14.38-.25.6-.3.02,0,.05,0,.08,0,.14.02.25.16.22.3-.01.21-.08.42-.2.6l-.6,1.5c-.13.49-.59.83-1.1.8v-.2ZM464.8,116.9v-17c0-.4-.1-.6-.3-.6l-1.4.6c-1.2.61-2.43,1.15-3.7,1.6-.8.2-1.3.5-1.3.7-.1.3.3.4.9.4.66-.09,1.32.13,1.8.6.37.85.5,1.78.4,2.7v10.9c.04.75-.07,1.49-.3,2.2-.18.49-.59.87-1.1,1l-.5.2c-.28.06-.49.31-.5.6,0,.3.2.5.7.5.3-.05.6-.08.9-.1.26-.09.53-.12.8-.1l1.9-.1h1.6c.7,0,1.3.1,1.8.1.56.07,1.13.1,1.7.1.4,0,.7-.1.7-.4,0-.3-.3-.5-.9-.6l-1.2-.1c-.66,0-1.27-.3-1.7-.8-.35-.75-.49-1.58-.4-2.4h.1ZM463.1,89.4c-.3,0-.8.4-1.5,1-.7.7-1,1.2-1,1.6.12.62.44,1.18.9,1.6.6.7,1.1,1,1.4,1,.4,0,.9-.3,1.5-1,.46-.42.78-.98.9-1.6-.04-.23-.14-.44-.3-.6l-.6-1c-.5-.7-.9-1-1.3-1M482.1,102.8h-6.1v12.7c0,1.6.2,2.7.7,3.2.81.76,1.89,1.16,3,1.1.9.03,1.8-.18,2.6-.6l1.3-.6.2-.1s.05,0,.08,0c.14.02.25.16.22.3,0,.5-.7,1.1-2,1.8-1.17.63-2.47.98-3.8,1-3.9,0-5.9-2-5.9-6v-12.7h-2.3c-.5,0-.7-.1-.7-.4,0-.2.2-.5.7-.9,1.77-1.47,3.32-3.18,4.6-5.1.5-.7.8-1.1,1-1.1.3,0,.4.3.4.7l-.1,4.4h5.4c.59.05,1.19-.09,1.7-.4.18-.14.38-.25.6-.3.02,0,.05,0,.08,0,.14.02.25.16.22.3-.01.21-.08.42-.2.6l-.6,1.5c-.13.49-.59.83-1.1.8v-.2ZM492.8,116.9v-17c0-.4-.1-.6-.3-.6l-1.4.6c-1.2.61-2.43,1.15-3.7,1.6-.8.2-1.3.5-1.3.7-.1.3.2.4.9.4.66-.09,1.32.13,1.8.6.37.85.5,1.78.4,2.7v10.9c.04.75-.07,1.49-.3,2.2-.21.47-.61.84-1.1,1l-.5.2c-.28.06-.49.31-.5.6,0,.3.2.5.7.5.3-.05.6-.08.9-.1.26-.09.53-.12.8-.1l1.9-.1h1.6c.7,0,1.3.1,1.8.1.56.07,1.13.1,1.7.1.5,0,.7-.1.7-.4,0-.3-.3-.5-.9-.6l-1.2-.1c-.66,0-1.27-.3-1.7-.8-.35-.75-.49-1.58-.4-2.4h.1ZM491.1,89.4c-.3,0-.8.4-1.5,1-.7.7-1,1.2-1,1.6.12.62.44,1.18.9,1.6.6.7,1,1,1.4,1s.9-.3,1.5-1c.46-.42.78-.98.9-1.6-.04-.23-.14-.44-.3-.6l-.6-1c-.5-.7-.9-1-1.3-1M508.4,99.9c-2.99-.08-5.89,1.08-8,3.2-4.32,4.27-4.41,11.22-.2,15.6,2.16,2.02,5.04,3.1,8,3,3.04.11,5.99-1.01,8.2-3.1,2.11-2.08,3.27-4.94,3.2-7.9.02-2.89-1.18-5.65-3.3-7.6-2.1-2.08-4.94-3.23-7.9-3.2M507.8,100.9c2.37-.07,4.59,1.16,5.8,3.2,1.6,2.39,2.41,5.22,2.3,8.1.12,2.21-.51,4.4-1.8,6.2-1.21,1.51-3.06,2.37-5,2.3-2.46-.01-4.75-1.25-6.1-3.3-1.65-2.37-2.49-5.21-2.4-8.1-.08-2.21.63-4.37,2-6.1,1.3-1.5,3.21-2.35,5.2-2.3M527.7,101v2.7c2.3-2.7,4.7-4,7.1-4,2.56-.07,4.97,1.18,6.4,3.3,1.1,1.5,1.6,3.8,1.6,6.9v6.9l.1,1.2c.12,1.09,1.01,1.93,2.1,2l1.1.2c.4.1.7.2.7.5.1.4-.2.6-.8.6-.34,0-.67-.03-1-.1-1.03-.1-2.07-.14-3.1-.1l-2.5.1h-1l-.7.1-.4-.1c-.2-.1-.2-.2-.2-.4,0-.3.2-.4.5-.5l.8-.2c.7-.1,1-.7,1-1.8v-8.8c.15-1.97-.42-3.92-1.6-5.5-1.15-1.31-2.85-2.02-4.6-1.9-1.34.02-2.64.48-3.7,1.3-.98.6-1.58,1.65-1.6,2.8v11.7c.1,1.4,1.3,2.2,3.6,2.3.5.1.8.3.8.6s-.2.5-.6.5c-.44-.04-.87-.11-1.3-.2-.79-.11-1.6-.14-2.4-.1-2.7,0-4.4,0-4.9.1-.33.07-.66.1-1,.1-.4,0-.5-.1-.5-.4,0-.2.2-.4.5-.5.69-.18,1.32-.57,1.8-1.1.38-.63.55-1.37.5-2.1v-11.4c.09-.82-.05-1.65-.4-2.4-.2-.4-.8-.6-1.6-.6h-1.1c-.14.01-.28-.02-.4-.1-.12-.1-.2-.24-.2-.4,0-.2.2-.4.7-.5,1.14-.19,2.25-.53,3.3-1l1.4-.7c.5-.3.9-.4,1-.5.18-.11.39-.18.6-.2.3,0,.4.2.4.7v1h-.4ZM551.2,108.5h9.6l1.7.1h1.9c1.1,0,1.7-.2,1.7-.8-.1-.69-.31-1.37-.6-2-.38-.79-.82-1.56-1.3-2.3-1.54-2.23-4.09-3.54-6.8-3.5-2.65.01-5.15,1.23-6.8,3.3-1.88,2.12-2.91,4.86-2.9,7.7-.1,2.86.9,5.66,2.8,7.8,1.75,2.03,4.32,3.16,7,3.1,2.56-.04,5.03-.96,7-2.6,1.2-1,1.8-1.7,1.8-2.2,0-.02,0-.05,0-.07-.02-.2-.2-.35-.4-.33-.15.02-.29.09-.4.2-1.66,1.49-3.77,2.37-6,2.5-2.33,0-4.52-1.12-5.9-3-1.63-2.08-2.48-4.66-2.4-7.3v-.6h0ZM551.3,107.1c.1-1.65.73-3.23,1.8-4.5.84-1.08,2.13-1.71,3.5-1.7,1.41.05,2.74.66,3.7,1.7,1.02.97,1.63,2.29,1.7,3.7,0,.5-.7.8-2,.8h-8.7M575,100.7v4c2-3.1,3.8-4.6,5.5-4.6.77.11,1.49.42,2.1.9.8.6,1.3,1.1,1.3,1.5,0,.3-.2.7-.8,1.4-.6.6-1,1-1.2,1-.4-.14-.77-.34-1.1-.6-.63-.41-1.35-.65-2.1-.7-.99-.05-1.94.36-2.6,1.1-.69.76-1.05,1.77-1,2.8v9c-.08,1.04.13,2.07.6,3,.47.64,1.21,1.01,2,1l1.3.1c.5,0,.8.2.8.5s-.2.5-.7.5c-.4,0-.8-.04-1.2-.1-.46-.1-.93-.13-1.4-.1h-2.9c-.97-.03-1.94,0-2.9.1-.29.07-.6.11-.9.1-.5,0-.7-.2-.7-.5s.3-.5.8-.6c.6-.02,1.13-.37,1.4-.9.26-.94.36-1.92.3-2.9v-10.8c0-1.9-.9-2.9-2.8-2.9h-.9s-.1,0-.15,0c-.29-.04-.49-.31-.45-.6,0-.24.17-.45.4-.5.19-.08.39-.12.6-.1,2.03-.39,3.97-1.17,5.7-2.3.18-.11.39-.18.6-.2.4,0,.6.3.6.9v.5h-.2ZM593.3,99.9c1.11-.05,2.23.08,3.3.4l1.1.4c.5.2.7.5.7.8v1.2l.1,1c.08.33.11.66.1,1,0,.6-.2,1-.6,1-.2,0-.4-.2-.6-.7-.9-2.6-2.6-3.9-5.2-3.9-.92-.02-1.81.3-2.5.9-.66.53-1.03,1.35-1,2.2-.02.9.39,1.75,1.1,2.3,1.31.92,2.77,1.63,4.3,2.1,1.64.53,3.15,1.41,4.4,2.6.85,1.04,1.28,2.36,1.2,3.7.03,1.86-.73,3.64-2.1,4.9-1.37,1.31-3.2,2.02-5.1,2-1.6-.06-3.17-.47-4.6-1.2-.21-.15-.45-.25-.7-.3l-.7-.1s-.03,0-.05,0c-.32-.01-.56-.28-.55-.6v-1.1l-.1-3.2.1-.8c.1-.4.3-.7.6-.7s.5.3.6.8c.26,1.64.99,3.17,2.1,4.4.93,1.06,2.29,1.65,3.7,1.6,1.14.04,2.24-.36,3.1-1.1.79-.71,1.23-1.74,1.2-2.8,0-1.8-.9-3-2.9-3.9l-2.3-1c-1.58-.64-3.04-1.55-4.3-2.7-.87-.91-1.34-2.14-1.3-3.4,0-1.6.74-3.11,2-4.1,1.39-1.12,3.12-1.72,4.9-1.7"></path>
      <path class="cls-1" d="M0,0v182.4h158.7V0H0ZM83.4,126.5c-2.6.6-3.5,2.5-3.5,4.8v16.7c0,1.5-.2,1.8-1.5,2.2-2.5.88-4.88,2.06-7.1,3.5-5.32,3.38-11.5,5.15-17.8,5.1-19.4,0-33.2-12.9-33.2-31.9s14.5-33,33.1-33c6.26-.04,12.43,1.44,18,4.3.97.59,2.07.93,3.2,1,1.1,0,1.1-1.1,2.1-1.1.9,0,.9.8,1.1,2l1.7,12.5c0,.5-.4.9-.9.9-.3,0-.6,0-1-.8-5.2-10.5-14-15.9-24.2-15.9-16,0-25.4,10.8-25.4,26.7,0,9.8,2.5,16.8,6.1,21.7,6.8,9.3,14.8,10.7,20,10.7,9.2,0,15.3-4.7,17.2-7.3,1.1-1.5,1.5-2.6,1.5-6.4v-8.5c.1-1.25-.04-2.5-.4-3.7-.8-2.2-2.5-3.2-6.4-3.5-.6,0-1.1-.3-1.1-.9,0-.5.2-1,1.3-1s5.4.3,9.5.3,7.4-.3,8.1-.3c.8,0,1.1.3,1.1.8,0,.7-.8.9-1.5,1.1ZM83.9,90.6c-2.5,0-8.3-1.2-11.4-3.6-2.73-1.93-5.24-4.14-7.5-6.6-6.9-7.5-12.9-17-18.9-23.9-1.43-2.15-3.73-3.58-6.3-3.9-1-.2-2-.3-2-1.2,0-.5.4-.8,1.2-.7,1.66.23,3.33.33,5,.3,7.3,0,12.8-5.2,12.8-13.6s-5.6-14.5-15.4-14.5c-5.1,0-5.8,1.2-5.8,4.2v45.1c0,3.2.1,4.6.8,6,1.4,3.1,4.7,3.6,7.7,3.9,1.1.1,1.7.4,1.7,1.1,0,.5-.4.8-1.5.8-3.8,0-4.8-.4-11.9-.4-3.7,0-8.4.4-9.8.4-.8,0-1.3-.1-1.3-.8,0-.5.6-.8,1.3-.9,2.06-.28,3.85-1.55,4.8-3.4.8-1.8,1.1-5.2,1.1-10.4V31c0-5.6-2.4-8.4-7.1-8.8-1-.1-1.5-.2-1.5-.9,0-.5.4-.9,1.3-.9,1.5,0,3.9.4,7.5.4s9.7-.4,13.7-.4c16.5,0,22,8,22,16,0,7.5-5.8,13.8-13.9,15.9,5,4.1,15.4,19.2,24.1,28.9,1.4,1.5,2,2.2,3.3,3.4,6.1,6,10.1,3.9,10.1,5.4,0,.6-1.8.5-4.1.6ZM121.7,128c-2.29.56-4.64.82-7,.8h0c-1.48-.04-2.95-.21-4.4-.5-1-.3-1.2-.6-1.2-1s.3-.6.8-.6c1.48.31,2.99.48,4.5.5,8.3,0,13.6-6.6,13.6-15,0-9.4-5.6-15-15.4-15-5.1,0-5.8,1.2-5.8,4.2v45c0,3.2.1,4.6.8,6,1.4,3.1,4.7,3.6,7.7,3.9,1.1.2,1.7.4,1.7,1.1,0,.5-.3.8-1.5.8-3.8,0-4.8-.4-11.9-.4-3.7,0-8.4.4-9.8.4-.7,0-1.3-.1-1.3-.8,0-.5.5-.7,1.3-.9,2.09-.21,3.91-1.5,4.8-3.4.7-1.7,1.1-5.2,1.1-10.4v-37.5c0-7.9-4.9-8.5-7.1-8.8-1-.1-1.5-.3-1.5-.9,0-.5.4-.9,1.4-.9,1.5,0,3.8.4,7.4.4s9.6-.5,13.7-.5c16.5,0,22,7.8,22,16.5,0,7.5-5.8,14.8-13.9,17ZM138.4,66.9l-1.4,7.2c-.3,1.7-1,2.2-2.3,3.1-7.01,4.5-15.17,6.86-23.5,6.8-19.3,0-33.1-12.9-33.1-32s14.5-33,33.1-33c6.26-.04,12.43,1.44,18,4.3.97.59,2.07.93,3.2,1,1.1,0,1.1-1.1,2.1-1.1.8,0,.9.8,1.1,2h0l1.7,12.4c0,.5-.4.9-.9.9-.3,0-.6,0-1-.8-5.2-10.5-14-15.9-24.2-15.9-16,0-25.4,10.8-25.4,26.7,0,9.8,2.6,16.8,6.2,21.7,4.74,6.84,12.58,10.86,20.9,10.7,11.3,0,19.9-6.3,23.5-13.6.5-1.2.7-1.4,1.4-1.4.4,0,.7.4.6,1Z"></path>
    </g>
  </g>
</svg>
