<?xml version="1.0" encoding="UTF-8"?>
<svg xmlns="http://www.w3.org/2000/svg" id="Layer_2" data-name="Layer 2" viewBox="0 0 71.59 43.93">
  <defs>
    <style>
      .cls-1 {
        fill: #18abb5;
      }

      .cls-1, .cls-2 {
        stroke-width: 0px;
      }

      .cls-2 {
        fill: #006193;
      }
    </style>
  </defs>
  <g id="Layer_1-2" data-name="Layer 1">
    <g>
      <path class="cls-2" d="M62.29,30.97c-4.67,2.12-9.13,6.46-8.68,11.95.01.13.16.95-.03,1.01-.3.1-.99-1.42-1.08-1.58-.45-.83-.7-1.75-.83-2.67-.43-2.82-.04-5.77.39-8.57.32-2.06.72-4.1,1.15-6.14.49-2.29,1.16-4.57,1.48-6.89.42-3.05,0-6.2-1.61-8.85-1.12-1.83-2.72-3.31-4.52-4.47-1.01-.65-3.32-1.45-3.01-3.01.25-1.24,1.16-1.64,2.25-1.72,1.73-.12,3.62.07,5.3.53,1.92.52,3.69,1.63,5.16,2.94,1.31,1.17,2.76,2.69,3.21,4.44.19.74.24,1.38.81,1.95.64.64,1.38,1.16,2.19,1.55.66.32,1.36.56,2.05.8.62.21,1.39.33,1.86.82,1.19,1.23-1.91,2.72-1.17,3.61.22.27.5.51.82.66.35.16.83.23,1.06.57.41.63.01,1.54-.64,1.84.61-.55,2.02-.02,1.97.86-.02.39-.35.66-.46,1.02-.15.47.27,1.16.6,1.47.84.78,1.35,1.79.83,2.91-.46.99-1.65,1.64-2.57,2.12-2.09,1.09-4.36,1.9-6.52,2.83-7.61,3.45,0,0,0,0"></path>
      <g>
        <path class="cls-2" d="M1.78,16.68c1.42,1.21,3.12,1.82,5.08,1.84,2.33-.03,3.51-.89,3.54-2.57.02-1.38-.76-2.21-2.33-2.49-.72-.1-1.51-.22-2.37-.34-1.54-.26-2.71-.85-3.51-1.76-.83-.94-1.24-2.08-1.24-3.42,0-1.61.52-2.92,1.56-3.91,1.01-.98,2.43-1.48,4.28-1.5,2.22.05,4.16.69,5.8,1.91l-1.51,2.3c-1.34-.91-2.82-1.39-4.43-1.42-.84,0-1.53.22-2.09.65-.58.45-.88,1.12-.9,2,0,.53.2,1.02.6,1.45.4.44,1.04.74,1.93.91.49.08,1.16.18,2.01.29,1.68.24,2.92.86,3.72,1.86.79.99,1.19,2.14,1.19,3.45-.09,3.53-2.18,5.33-6.28,5.38-2.65,0-4.93-.84-6.83-2.52l1.78-2.11Z"></path>
        <path class="cls-2" d="M21.38,15.58h-3.07c-1.49.03-2.23.56-2.21,1.59,0,.45.19.83.58,1.14.37.35.98.52,1.83.52,1.07.02,1.83-.11,2.27-.39.4-.28.6-.91.6-1.9v-.95ZM21.38,19.99h-.05c-.24.45-.6.78-1.1.99-.49.22-1.17.33-2.04.33-1.42-.02-2.52-.41-3.29-1.17-.81-.74-1.21-1.69-1.21-2.85s.35-2.02,1.05-2.75c.7-.74,1.73-1.12,3.09-1.14h3.55v-1.39c.02-1.16-.86-1.73-2.61-1.69-.64,0-1.14.07-1.51.2-.38.16-.69.43-.91.82l-2.01-1.59c.97-1.31,2.41-1.95,4.3-1.91,1.6-.02,2.88.3,3.84.94.96.66,1.44,1.79,1.46,3.4v8.98h-2.56v-1.16Z"></path>
      </g>
      <polygon class="cls-2" points="24.29 8.01 27 8.01 29.99 17.23 30.04 17.23 33.02 8.01 35.74 8.01 31.07 21.16 28.96 21.16 24.29 8.01"></polygon>
      <path class="cls-2" d="M43.38,13.41c-.03-1.03-.3-1.8-.8-2.33-.49-.5-1.12-.75-1.89-.75s-1.4.25-1.89.75c-.48.53-.75,1.3-.8,2.33h5.39ZM37.99,15.58c0,1.06.3,1.86.88,2.41.55.56,1.27.84,2.16.84,1.04,0,1.97-.43,2.79-1.28l1.85,1.64c-1.3,1.43-2.83,2.14-4.59,2.13-.67,0-1.33-.1-1.96-.3-.32-.11-.63-.26-.93-.44-.32-.16-.62-.36-.9-.6-.54-.49-.98-1.17-1.31-2.05-.37-.85-.55-1.94-.55-3.29s.16-2.38.48-3.24c.32-.88.73-1.57,1.23-2.08.51-.52,1.08-.89,1.71-1.11.62-.23,1.23-.34,1.84-.34,1.46.02,2.69.51,3.69,1.48,1.02.99,1.54,2.35,1.56,4.08v2.18h-7.95Z"></path>
      <polygon class="cls-1" points="2.8 26.32 2.8 33.12 10.9 33.12 10.9 34.89 2.8 34.89 2.8 43.04 .83 43.04 .83 24.56 12.3 24.56 12.3 26.32 2.8 26.32"></polygon>
      <g>
        <path class="cls-1" d="M21.23,37.14h-3.58c-1.92,0-2.86.78-2.86,2.26s.91,2.18,2.93,2.18c1.09,0,2.05-.08,2.85-.86.44-.41.65-1.14.65-2.21v-1.38ZM21.23,43.04v-1.22c-1.04,1.04-1.97,1.38-3.68,1.38s-2.8-.34-3.61-1.17c-.62-.62-.96-1.58-.96-2.59,0-2.23,1.56-3.68,4.41-3.68h3.84v-1.22c0-1.87-.93-2.8-3.27-2.8-1.64,0-2.46.39-3.22,1.45l-1.27-1.17c1.14-1.48,2.44-1.89,4.52-1.89,3.43,0,5.11,1.48,5.11,4.26v8.67h-1.87Z"></path>
        <path class="cls-1" d="M29.97,43.19c-3.22,0-5.66-2.18-5.66-6.54s2.44-6.54,5.66-6.54c1.77,0,2.88.47,4.2,1.89l-1.27,1.19c-.96-1.06-1.71-1.43-2.93-1.43s-2.28.49-2.96,1.45c-.6.83-.83,1.82-.83,3.43s.23,2.6.83,3.42c.67.96,1.71,1.45,2.96,1.45s1.97-.39,2.93-1.45l1.27,1.22c-1.32,1.43-2.44,1.89-4.2,1.89"></path>
        <path class="cls-1" d="M43.69,33.62c-.49-1.17-1.64-1.92-2.98-1.92s-2.49.75-2.98,1.92c-.29.7-.34,1.09-.39,2.13h6.75c-.05-1.04-.1-1.43-.39-2.13M37.34,37.15c0,2.8,1.32,4.41,3.76,4.41,1.48,0,2.33-.44,3.35-1.45l1.27,1.12c-1.3,1.3-2.49,1.97-4.67,1.97-3.37,0-5.58-2.02-5.58-6.54,0-4.13,2-6.54,5.24-6.54s5.24,2.39,5.24,6.18v.86h-8.62Z"></path>
      </g>
    </g>
  </g>
</svg>
